<?xml version="1.0" encoding="UTF-8"?>
<svg version="1.1" xmlns="http://www.w3.org/2000/svg" width="1536" height="1024">
<path d="M0 0 C506.88 0 1013.76 0 1536 0 C1536 337.92 1536 675.84 1536 1024 C1029.12 1024 522.24 1024 0 1024 C0 686.08 0 348.16 0 0 Z " fill="#07121F" transform="translate(0,0)"/>
<path d="M0 0 C0.69606063 -0.00453111 1.39212125 -0.00906223 2.10927463 -0.01373065 C4.4413865 -0.02638955 6.77326528 -0.02475333 9.10540771 -0.02310181 C10.77772828 -0.02908624 12.45004607 -0.03589158 14.12236023 -0.04345703 C18.6659188 -0.06113548 23.20940204 -0.06581326 27.75299168 -0.0670886 C30.5927083 -0.06851001 33.43240575 -0.07277945 36.27211761 -0.07808304 C46.18221757 -0.09659118 56.09226371 -0.10475289 66.00238037 -0.10317993 C75.23414349 -0.10197912 84.46567258 -0.12306751 93.69737649 -0.15466726 C101.6270394 -0.18084101 109.55662594 -0.19154673 117.4863317 -0.19026911 C122.22060859 -0.18975969 126.95467764 -0.19543142 131.68891144 -0.21662521 C136.14429097 -0.23602548 140.59926484 -0.23611991 145.05465889 -0.22159195 C146.68644111 -0.21950479 148.31824882 -0.22419925 149.94998741 -0.23631287 C159.26668894 -0.3009763 166.63223719 -0.32494484 174.0692749 5.94320679 C174.50626709 6.48332397 174.94325928 7.02344116 175.39349365 7.57992554 C176.06831787 8.37849976 176.06831787 8.37849976 176.7567749 9.19320679 C180.15822604 14.52114353 181.45592612 18.93717205 181.46194458 25.2434845 C181.46662455 25.90943998 181.47130452 26.57539546 181.47612631 27.26153141 C181.48801024 29.47390901 181.47864558 31.68565953 181.46917725 33.89804077 C181.47324594 35.4919877 181.4785895 37.08593181 181.48510742 38.67987061 C181.49875252 42.996042 181.49349371 47.3119976 181.48397017 51.62817264 C181.47635769 56.15279123 181.48342371 60.67739176 181.48812866 65.20201111 C181.49358215 72.80042831 181.48640587 80.39875796 181.47210693 87.99716187 C181.45578707 96.77055523 181.46106572 105.54373936 181.47758615 114.31712765 C181.49121964 121.86044934 181.4931114 129.4037082 181.48527014 136.94703823 C181.4806031 141.44759585 181.47994193 145.94805526 181.48987961 150.44860649 C181.49857393 154.68156428 181.49248255 158.91425355 181.47519684 163.14718246 C181.47124487 164.69671623 181.47234385 166.24627277 181.47898483 167.79579735 C181.54345942 184.37359401 181.54345942 184.37359401 176.3895874 191.65805054 C170.19455181 197.81428632 164.12359027 201.34730897 155.2645874 201.36117554 C153.86991093 201.33726924 152.47527059 201.308484 151.08099365 201.26742554 C151.10455933 202.33440674 151.10455933 202.33440674 151.12860107 203.42294312 C151.1909128 206.64185657 151.22997233 209.86064322 151.26849365 213.07992554 C151.29363037 214.19947632 151.31876709 215.3190271 151.34466553 216.47250366 C151.35916748 218.08222046 151.35916748 218.08222046 151.3739624 219.72445679 C151.38967285 220.71421509 151.4053833 221.70397339 151.42156982 222.72372437 C151.08099365 225.26742554 151.08099365 225.26742554 149.87518311 227.11386108 C147.41900401 228.69304822 145.95444853 228.66193451 143.08099365 228.26742554 C141.13079834 227.18856812 141.13079834 227.18856812 139.25286865 225.66195679 C138.53357178 225.08896851 137.8142749 224.51598022 137.07318115 223.92562866 C136.33325928 223.31654663 135.5933374 222.7074646 134.83099365 222.07992554 C132.59995004 220.28223519 130.36637139 218.49378627 128.10069275 216.73979187 C125.853879 214.90022227 123.8372037 213.06983848 121.77333069 211.04676819 C109.28292106 199.44669663 97.74065952 199.53839259 81.3270874 199.95492554 C78.7698292 199.96946353 76.21252652 199.97748492 73.65522766 199.9793396 C67.65025583 199.99626017 61.64855193 200.06696287 55.64462382 200.16850471 C44.24081266 200.35968176 32.83637495 200.43460224 21.43116951 200.48779297 C17.69904763 200.51696083 13.96889231 200.5824321 10.23735046 200.65292358 C7.9475295 200.67641753 5.65769904 200.6990084 3.36785889 200.72055054 C1.82403534 200.76412437 1.82403534 200.76412437 0.24902344 200.80857849 C-7.5785924 200.83704017 -12.16922037 198.61906822 -17.94244385 193.45883179 C-18.61146729 192.65252319 -18.61146729 192.65252319 -19.29400635 191.82992554 C-19.75549072 191.2949646 -20.2169751 190.76000366 -20.69244385 190.20883179 C-23.65941963 185.51269497 -24.17185969 180.84182714 -24.19316101 175.38711548 C-24.19839769 174.719342 -24.20363437 174.05156852 -24.20902973 173.36355948 C-24.22396098 171.1390704 -24.22473335 168.91481274 -24.22540283 166.6902771 C-24.23302901 165.08987035 -24.24145729 163.48946726 -24.25062561 161.8890686 C-24.27253353 157.55004074 -24.28136463 153.21108334 -24.28645205 148.87200642 C-24.29010031 146.15789523 -24.29634283 143.44380237 -24.30345345 140.72969818 C-24.327936 131.25170586 -24.34099706 121.77376817 -24.34454346 112.29574585 C-24.3481768 103.47632196 -24.37806078 94.65724647 -24.41994804 85.83792901 C-24.45469921 78.25383833 -24.47009274 70.66986284 -24.47078949 63.08569312 C-24.47158072 58.56147148 -24.48024821 54.03760489 -24.50878716 49.51346588 C-24.53505048 45.25496919 -24.53712736 40.99711983 -24.52113152 36.7385788 C-24.51932351 35.18180423 -24.52594889 33.62499172 -24.54195023 32.06829834 C-24.62649163 23.30447953 -24.36921058 15.55015498 -18.91900635 8.26742554 C-16.40694178 5.93480576 -13.87231979 4.00535949 -10.91900635 2.26742554 C-10.36118595 1.91909353 -9.80336555 1.57076153 -9.22864151 1.21187401 C-6.07532068 -0.07757165 -3.40544389 0.00915363 0 0 Z " fill="#08121E" transform="translate(348.91900634765625,374.7325744628906)"/>
<path d="M0 0 C0.69606063 -0.00453111 1.39212125 -0.00906223 2.10927463 -0.01373065 C4.4413865 -0.02638955 6.77326528 -0.02475333 9.10540771 -0.02310181 C10.77772828 -0.02908624 12.45004607 -0.03589158 14.12236023 -0.04345703 C18.6659188 -0.06113548 23.20940204 -0.06581326 27.75299168 -0.0670886 C30.5927083 -0.06851001 33.43240575 -0.07277945 36.27211761 -0.07808304 C46.18221757 -0.09659118 56.09226371 -0.10475289 66.00238037 -0.10317993 C75.23414349 -0.10197912 84.46567258 -0.12306751 93.69737649 -0.15466726 C101.6270394 -0.18084101 109.55662594 -0.19154673 117.4863317 -0.19026911 C122.22060859 -0.18975969 126.95467764 -0.19543142 131.68891144 -0.21662521 C136.14429097 -0.23602548 140.59926484 -0.23611991 145.05465889 -0.22159195 C146.68644111 -0.21950479 148.31824882 -0.22419925 149.94998741 -0.23631287 C159.26668894 -0.3009763 166.63223719 -0.32494484 174.0692749 5.94320679 C174.50626709 6.48332397 174.94325928 7.02344116 175.39349365 7.57992554 C176.06831787 8.37849976 176.06831787 8.37849976 176.7567749 9.19320679 C180.15822604 14.52114353 181.45592612 18.93717205 181.46194458 25.2434845 C181.46662455 25.90943998 181.47130452 26.57539546 181.47612631 27.26153141 C181.48801024 29.47390901 181.47864558 31.68565953 181.46917725 33.89804077 C181.47324594 35.4919877 181.4785895 37.08593181 181.48510742 38.67987061 C181.49875252 42.996042 181.49349371 47.3119976 181.48397017 51.62817264 C181.47635769 56.15279123 181.48342371 60.67739176 181.48812866 65.20201111 C181.49358215 72.80042831 181.48640587 80.39875796 181.47210693 87.99716187 C181.45578707 96.77055523 181.46106572 105.54373936 181.47758615 114.31712765 C181.49121964 121.86044934 181.4931114 129.4037082 181.48527014 136.94703823 C181.4806031 141.44759585 181.47994193 145.94805526 181.48987961 150.44860649 C181.49857393 154.68156428 181.49248255 158.91425355 181.47519684 163.14718246 C181.47124487 164.69671623 181.47234385 166.24627277 181.47898483 167.79579735 C181.54345942 184.37359401 181.54345942 184.37359401 176.3895874 191.65805054 C170.19455181 197.81428632 164.12359027 201.34730897 155.2645874 201.36117554 C153.86991093 201.33726924 152.47527059 201.308484 151.08099365 201.26742554 C151.10455933 202.33440674 151.10455933 202.33440674 151.12860107 203.42294312 C151.1909128 206.64185657 151.22997233 209.86064322 151.26849365 213.07992554 C151.29363037 214.19947632 151.31876709 215.3190271 151.34466553 216.47250366 C151.35916748 218.08222046 151.35916748 218.08222046 151.3739624 219.72445679 C151.38967285 220.71421509 151.4053833 221.70397339 151.42156982 222.72372437 C151.08099365 225.26742554 151.08099365 225.26742554 149.87518311 227.11386108 C147.41900401 228.69304822 145.95444853 228.66193451 143.08099365 228.26742554 C141.13079834 227.18856812 141.13079834 227.18856812 139.25286865 225.66195679 C138.53357178 225.08896851 137.8142749 224.51598022 137.07318115 223.92562866 C136.33325928 223.31654663 135.5933374 222.7074646 134.83099365 222.07992554 C132.59995004 220.28223519 130.36637139 218.49378627 128.10069275 216.73979187 C125.853879 214.90022227 123.8372037 213.06983848 121.77333069 211.04676819 C109.28292106 199.44669663 97.74065952 199.53839259 81.3270874 199.95492554 C78.7698292 199.96946353 76.21252652 199.97748492 73.65522766 199.9793396 C67.65025583 199.99626017 61.64855193 200.06696287 55.64462382 200.16850471 C44.24081266 200.35968176 32.83637495 200.43460224 21.43116951 200.48779297 C17.69904763 200.51696083 13.96889231 200.5824321 10.23735046 200.65292358 C7.9475295 200.67641753 5.65769904 200.6990084 3.36785889 200.72055054 C1.82403534 200.76412437 1.82403534 200.76412437 0.24902344 200.80857849 C-7.5785924 200.83704017 -12.16922037 198.61906822 -17.94244385 193.45883179 C-18.61146729 192.65252319 -18.61146729 192.65252319 -19.29400635 191.82992554 C-19.75549072 191.2949646 -20.2169751 190.76000366 -20.69244385 190.20883179 C-23.65941963 185.51269497 -24.17185969 180.84182714 -24.19316101 175.38711548 C-24.19839769 174.719342 -24.20363437 174.05156852 -24.20902973 173.36355948 C-24.22396098 171.1390704 -24.22473335 168.91481274 -24.22540283 166.6902771 C-24.23302901 165.08987035 -24.24145729 163.48946726 -24.25062561 161.8890686 C-24.27253353 157.55004074 -24.28136463 153.21108334 -24.28645205 148.87200642 C-24.29010031 146.15789523 -24.29634283 143.44380237 -24.30345345 140.72969818 C-24.327936 131.25170586 -24.34099706 121.77376817 -24.34454346 112.29574585 C-24.3481768 103.47632196 -24.37806078 94.65724647 -24.41994804 85.83792901 C-24.45469921 78.25383833 -24.47009274 70.66986284 -24.47078949 63.08569312 C-24.47158072 58.56147148 -24.48024821 54.03760489 -24.50878716 49.51346588 C-24.53505048 45.25496919 -24.53712736 40.99711983 -24.52113152 36.7385788 C-24.51932351 35.18180423 -24.52594889 33.62499172 -24.54195023 32.06829834 C-24.62649163 23.30447953 -24.36921058 15.55015498 -18.91900635 8.26742554 C-16.40694178 5.93480576 -13.87231979 4.00535949 -10.91900635 2.26742554 C-10.36118595 1.91909353 -9.80336555 1.57076153 -9.22864151 1.21187401 C-6.07532068 -0.07757165 -3.40544389 0.00915363 0 0 Z M39.08099365 27.26742554 C36.62447404 30.8791733 35.08099365 33.8679738 35.08099365 38.26742554 C34.11161865 38.16430054 33.14224365 38.06117554 32.14349365 37.95492554 C26.11427831 37.99146624 21.30808717 41.17133752 17.0223999 45.20492554 C10.88008413 51.94742601 9.71681617 57.39140371 9.8661499 66.38461304 C9.79626809 69.23364065 9.70176056 71.5568169 7.77532959 73.76205444 C6.25685382 74.99008351 4.66986378 76.13194512 3.08099365 77.26742554 C-3.32620163 85.43839929 -3.79375677 95.27340198 -2.91900635 105.26742554 C-1.05791653 113.57888349 2.87093875 121.46072227 10.08099365 126.26742554 C10.41693115 129.39242554 10.41693115 129.39242554 10.45599365 133.26742554 C10.73994598 140.94792254 12.34854363 147.02086394 17.4989624 152.88070679 C22.09590357 157.05862383 27.32580526 159.43308184 33.51849365 159.45492554 C34.69411865 159.39305054 35.86974365 159.33117554 37.08099365 159.26742554 C37.14286865 159.94805054 37.20474365 160.62867554 37.26849365 161.32992554 C38.94381626 167.38686111 42.47512411 171.18783888 47.51849365 174.70492554 C53.84374171 178.22629498 60.0246076 178.24128934 67.08099365 177.26742554 C72.72879756 175.63967419 77.27515016 172.54946499 82.08099365 169.26742554 C82.74099365 169.26742554 83.40099365 169.26742554 84.08099365 169.26742554 C85.13286865 170.38117554 85.13286865 170.38117554 86.20599365 171.51742554 C91.51126755 176.59203535 95.99730843 178.51298975 103.39349365 178.76742554 C111.61280811 178.47217786 118.90179252 176.66661151 125.08099365 171.01742554 C127.44208766 168.45221826 128.45754281 166.43023341 129.33099365 163.07992554 C129.9520874 161.05258179 129.9520874 161.05258179 131.08099365 159.26742554 C133.78105174 157.86269516 136.44784004 157.00095693 139.3583374 156.11898804 C146.7316926 153.81283103 151.06077074 148.68090564 154.89349365 142.20492554 C156.34908406 138.67216828 156.03423699 135.54256249 155.83099365 131.76742554 C155.66938155 125.85511615 155.66938155 125.85511615 157.48724365 123.25961304 C158.72812177 122.1712157 159.98518376 121.10102683 161.2567749 120.04867554 C166.40918826 115.01762524 167.31921775 107.52949438 167.45599365 100.64242554 C167.01085369 89.21716652 164.20043773 82.12000595 156.4833374 73.47836304 C155.13750665 72.04957054 155.13750665 72.04957054 153.08099365 72.26742554 C153.41099365 71.60742554 153.74099365 70.94742554 154.08099365 70.26742554 C154.9189306 60.69560735 153.60444477 54.04289994 147.51849365 46.57992554 C143.37425314 42.14405328 138.80260165 39.28980563 133.08099365 37.26742554 C132.09099365 37.26742554 131.10099365 37.26742554 130.08099365 37.26742554 C130.03974365 36.60742554 129.99849365 35.94742554 129.95599365 35.26742554 C127.62763796 27.28449173 120.951187 21.55794813 114.01849365 17.45492554 C107.79161591 15.07162941 100.40527002 15.10748418 94.15911865 17.28695679 C90.14718547 19.25137969 86.61255157 21.5366744 83.08099365 24.26742554 C82.21087646 23.65254272 82.21087646 23.65254272 81.32318115 23.02523804 C66.96453442 13.12108897 51.6220283 14.36212847 39.08099365 27.26742554 Z " fill="#028BBE" transform="translate(348.91900634765625,374.7325744628906)"/>
<path d="M0 0 C4.00099161 2.0004958 6.7762928 4.12096818 9 8 C9.25673097 10.83342655 9.35005816 13.4383719 9.29296875 16.265625 C9.28872391 17.05902283 9.28447906 17.85242065 9.28010559 18.66986084 C9.2633504 21.1969232 9.22570506 23.72317983 9.1875 26.25 C9.17244903 27.96613429 9.15876134 29.68228112 9.14648438 31.3984375 C9.11345735 35.59926746 9.06169765 39.79949725 9 44 C7.8872168 44.17631958 7.8872168 44.17631958 6.75195312 44.35620117 C5.77162109 44.52095947 4.79128906 44.68571777 3.78125 44.85546875 C2.3281543 45.09366333 2.3281543 45.09366333 0.84570312 45.33666992 C-4.39303373 46.55781337 -8.47658767 48.97110761 -11.70703125 53.2734375 C-13.24587182 56.51848499 -13.30523719 58.74113846 -13.1875 62.3125 C-13.16042969 63.38113281 -13.13335937 64.44976562 -13.10546875 65.55078125 C-13.05326172 66.76314453 -13.05326172 66.76314453 -13 68 C-10.60280568 68.67958603 -10.60280568 68.67958603 -8 69 C-5.67410057 66.67410057 -5.66519176 65.78511475 -5.1875 62.625 C-4.4918759 59.30205717 -4.08418176 58.09861292 -1.8125 55.4375 C1.6809314 53.65196839 4.12700472 53.62759661 8 54 C9.91781065 55.91781065 9.17712044 59.47267642 9.19287109 62.08666992 C9.20513733 63.19896973 9.20513733 63.19896973 9.21765137 64.33374023 C9.24255722 66.7993081 9.25903756 69.26481805 9.2734375 71.73046875 C9.27876118 72.57157007 9.28408485 73.41267139 9.28956985 74.27926064 C9.3163284 78.73409744 9.33569157 83.18890601 9.35009766 87.64379883 C9.36672097 92.24298443 9.41147092 96.84145 9.4624691 101.44036388 C9.49615893 104.97747096 9.50767717 108.51440789 9.51332474 112.05166054 C9.52003621 113.74652906 9.5352557 115.44138642 9.55921555 117.13609886 C9.590899 119.51344305 9.59089966 121.88885682 9.58349609 124.26635742 C9.59990143 124.96322159 9.61630676 125.66008575 9.63320923 126.37806702 C9.56227982 131.9604518 7.77375895 134.19397394 4 138 C-1.04946673 141.76946219 -5.82239583 142.69747144 -12 142 C-16.13100075 140.41115356 -19.37258828 138.60052717 -22 135 C-23.08310674 132.22081953 -23.51064966 129.95609417 -23 127 C-20.67591277 123.55827847 -17.76689861 121.46319738 -13.75 120.41015625 C-11.5625 120.125 -11.5625 120.125 -8 120 C-7.61866701 118.0085944 -7.28674418 116.00720923 -7 114 C-8.68554595 112.31445405 -10.68704073 112.66851063 -13 112.5625 C-19.37004929 112.61226601 -23.35701655 114.73644315 -28 119 C-30.05011189 121.64999381 -30.05011189 121.64999381 -31 124 C-37.21010333 123.97183627 -41.1178429 122.99786027 -45.625 118.60546875 C-49.31583909 114.2959947 -49.05768726 110.48028977 -49 105 C-47.22496094 105.10441406 -47.22496094 105.10441406 -45.4140625 105.2109375 C-33.47029572 105.76339 -33.47029572 105.76339 -22.85546875 100.765625 C-18.01456253 96.15912056 -16.57042395 91.38773828 -15.98046875 84.8203125 C-15.78799061 82.97884954 -15.78799061 82.97884954 -17 82 C-18.66617115 81.95936168 -20.33388095 81.957279 -22 82 C-22.45439453 83.01320313 -22.45439453 83.01320313 -22.91796875 84.046875 C-23.33691406 84.93890625 -23.75585938 85.8309375 -24.1875 86.75 C-24.79658203 88.07257813 -24.79658203 88.07257813 -25.41796875 89.421875 C-27.3010488 92.49059804 -28.93519538 94.10191078 -32 96 C-38.85687227 97.11413934 -46.25402936 97.00695005 -52.3203125 93.3359375 C-56.90494701 89.68955377 -60.24958105 85.63316643 -62 80 C-62.24073099 77.34356152 -62.38089443 74.84123248 -62.375 72.1875 C-62.37411377 71.47770996 -62.37322754 70.76791992 -62.37231445 70.03662109 C-62.24168803 64.26120926 -61.28947503 60.69925005 -58 56 C-53.72720408 53.15146939 -50.01486399 53.38360549 -45 54 C-41.23256794 55.29308893 -38.62820014 57.17684119 -36.1875 60.375 C-34.90860636 63.20202804 -33.89766297 66.0308071 -33 69 C-31.33388095 69.042721 -29.66617115 69.04063832 -28 69 C-26.59144923 67.80603644 -26.59144923 67.80603644 -26.6875 64.375 C-26.79546325 58.87868932 -28.84288228 55.11735518 -32.6953125 51.3359375 C-37.14615877 47.67795453 -41.39694415 45.99488429 -46.99609375 44.73828125 C-47.65738281 44.49464844 -48.31867188 44.25101562 -49 44 C-50.5271547 39.41853591 -50.97545313 35.27470814 -49.05859375 30.8046875 C-46.66464907 26.73723291 -44.4533072 23.89265556 -40 22 C-38.33769857 21.64553867 -36.67131343 21.30919298 -35 21 C-34.69707031 21.67546875 -34.39414062 22.3509375 -34.08203125 23.046875 C-33.66308594 23.93890625 -33.24414062 24.8309375 -32.8125 25.75 C-32.40644531 26.63171875 -32.00039063 27.5134375 -31.58203125 28.421875 C-29.69247267 31.50115564 -28.08707292 33.1103108 -25 35 C-21.52583341 35.55581049 -21.52583341 35.55581049 -17.875 35.375 C-16.65554688 35.36210937 -15.43609375 35.34921875 -14.1796875 35.3359375 C-10.84579821 35.23246127 -10.84579821 35.23246127 -8 33 C-8.37904208 29.70924004 -8.37904208 29.70924004 -10 27 C-11.77164312 27.03221169 -13.54268803 27.10076749 -15.3125 27.1875 C-20.61607143 27.1875 -20.61607143 27.1875 -23.6875 25.6875 C-25.86819255 21.22227239 -25.67805333 16.85938218 -25 12 C-20.53229719 1.94766869 -10.130078 -1.04448544 0 0 Z " fill="#009CC4" transform="translate(418,401)"/>
<path d="M0 0 C3.24877654 2.85480177 5.5803666 5.76474366 7.09375 9.83984375 C7.23286565 14.01331312 6.80625953 15.90621057 4.28125 19.21484375 C0.07829354 21.35752744 -3.68902328 21.46471822 -8.359375 21.6640625 C-10.84052673 21.55520679 -10.84052673 21.55520679 -11.90625 22.83984375 C-12.23968551 25.29776404 -12.23968551 25.29776404 -11.90625 27.83984375 C-7.58923544 30.71785346 -3.97119799 30.52564771 1.09375 29.83984375 C6.47348966 28.12078286 10.83153992 26.02913023 13.71875 21.02734375 C14.399375 19.44953125 14.399375 19.44953125 15.09375 17.83984375 C20.94443819 19.12414116 24.41513949 22.2897167 28.09375 26.83984375 C29.2515006 30.31309556 29.16241652 33.20051823 29.09375 36.83984375 C28.54847656 36.69546875 28.00320313 36.55109375 27.44140625 36.40234375 C20.19467317 34.61853253 13.5086382 33.06565959 6.78125 37.02734375 C2.0696123 40.35265465 -1.3994058 44.18917799 -2.90625 49.83984375 C-3.10968539 53.18348696 -3.17229561 56.49880585 -2.90625 59.83984375 C-1.8466623 61.12306922 -1.8466623 61.12306922 0.59375 60.96484375 C3.0341623 61.12306922 3.0341623 61.12306922 4.09375 59.83984375 C4.38907195 58.26089471 4.65512009 56.67642148 4.90625 55.08984375 C5.73966691 50.70970525 6.81574765 48.01540853 10.09375 44.83984375 C14.07100204 42.85121773 18.38728497 43.39162667 22.5625 44.48828125 C29.87508642 47.12893746 35.4745149 51.2067112 40.03125 57.52734375 C43.16869295 64.35589606 43.45296894 73.31808571 41.3046875 80.46484375 C39.66603612 83.86723439 38.2548033 85.73247489 35.09375 87.83984375 C30.35269221 88.19203661 26.74525049 87.21889858 22.65625 84.83984375 C19.73399701 81.41866952 19.08831901 79.08414138 18.41796875 74.73046875 C18.27997631 72.83359743 18.27997631 72.83359743 17.09375 71.83984375 C15.09416636 71.79903592 13.09329746 71.79730019 11.09375 71.83984375 C9.46560112 78.21676021 10.77942961 82.21714685 14.09375 87.83984375 C16.9097015 91.46035282 19.50542401 93.11827166 23.65625 94.83984375 C27.62238481 96.50178004 30.06306048 97.87076879 32.09375 101.83984375 C32.0084223 106.61819469 31.04449517 110.07509991 28.09375 113.83984375 C24.16353099 116.98401896 21.10308477 118.36276425 16.09375 118.83984375 C15.63935547 117.82664062 15.63935547 117.82664062 15.17578125 116.79296875 C12.07567855 110.19213469 9.80359651 106.21386097 2.71875 103.58984375 C-0.97387576 102.82585221 -4.14834207 102.54510587 -7.90625 102.83984375 C-10.25598818 104.73739519 -10.25598818 104.73739519 -10.03125 107.96484375 C-9.99 108.91359375 -9.94875 109.86234375 -9.90625 110.83984375 C-9.17019531 110.85402344 -8.43414062 110.86820313 -7.67578125 110.8828125 C0.37102388 111.27611737 0.37102388 111.27611737 4.21875 114.27734375 C7.53835286 118.81413432 7.60492378 122.32846103 7.09375 127.83984375 C5.40592874 132.54797673 3.30926203 135.15724519 -0.90625 137.83984375 C-6.76983265 140.01154103 -11.95187668 140.80453708 -17.96875 138.83984375 C-22.09657596 136.02940905 -24.80102096 133.43158628 -26.90625 128.83984375 C-27.63771408 123.31601608 -27.47517458 117.89657581 -27.28125 112.33984375 C-27.25110801 110.83468885 -27.22373966 109.32947572 -27.19921875 107.82421875 C-27.1335673 104.16153695 -27.03028382 100.50106764 -26.90625 96.83984375 C-25.26076172 96.38544922 -25.26076172 96.38544922 -23.58203125 95.921875 C-22.1273565 95.49955007 -20.67294283 95.07632512 -19.21875 94.65234375 C-18.1369043 94.3574707 -18.1369043 94.3574707 -17.03320312 94.05664062 C-12.13225569 92.60202152 -9.24712474 90.89127767 -5.90625 86.83984375 C-3.54178594 82.35551536 -2.42275792 78.91651062 -2.90625 73.83984375 C-3.97270115 72.54350754 -3.97270115 72.54350754 -6.46875 72.77734375 C-7.273125 72.79796875 -8.0775 72.81859375 -8.90625 72.83984375 C-9.12539063 73.443125 -9.34453125 74.04640625 -9.5703125 74.66796875 C-11.716882 80.07802195 -13.39400491 83.29573063 -18.90625 85.83984375 C-20.29962492 86.08600446 -21.70245353 86.28305894 -23.109375 86.43359375 C-24.98882812 86.6346875 -24.98882812 86.6346875 -26.90625 86.83984375 C-26.99894711 76.23480041 -27.07001361 65.62985352 -27.11349869 55.0244875 C-27.13436985 50.09991962 -27.16267896 45.17562901 -27.20800781 40.2512207 C-27.25148227 35.49850427 -27.27539066 30.74605446 -27.28575897 25.99315453 C-27.29314746 24.18024689 -27.30757554 22.36735378 -27.32917023 20.55455971 C-27.35822587 18.01432434 -27.36220516 15.47518937 -27.36035156 12.93481445 C-27.37473267 12.18603027 -27.38911377 11.43724609 -27.40393066 10.66577148 C-27.3651861 5.7557498 -26.39329792 3.28685809 -22.90625 -0.16015625 C-15.08000617 -5.63852693 -7.73459897 -5.62877494 0 0 Z " fill="#0186BE" transform="translate(463.90625,404.16015625)"/>
<path d="M0 0 C5.94 0 11.88 0 18 0 C19.50240234 2.80564453 19.50240234 2.80564453 21.03515625 5.66796875 C22.03145916 7.52825767 23.02781232 9.38851967 24.02416992 11.2487793 C24.70390963 12.51795706 25.38359909 13.78716175 26.06323242 15.05639648 C26.72354877 16.28954093 27.38397991 17.52262391 28.04452515 18.75564575 C28.70536809 19.98964948 29.36570691 21.2239233 30.02554321 22.45846558 C31.68810682 25.5661621 33.3618868 28.66687496 35.05810547 31.75634766 C35.38419296 32.35304764 35.71028046 32.94974762 36.04624939 33.56452942 C36.94380745 35.2052054 37.84567314 36.84352269 38.74780273 38.48168945 C40 41 40 41 40 43 C43.08640227 40.35527152 44.7426227 37.04677927 46.58203125 33.49609375 C46.91869308 32.85817398 47.25535492 32.22025421 47.60221863 31.56300354 C48.6775443 29.52387033 49.74551439 27.48100782 50.8125 25.4375 C51.51830831 24.09019504 52.22468321 22.74318673 52.93164062 21.39648438 C53.27645477 20.73854889 53.62126892 20.0806134 53.97653198 19.40274048 C54.67023872 18.09304602 55.37296894 16.78809026 56.08474731 15.48812866 C57.65774088 12.61289477 59.046569 9.87767925 60.21630859 6.80517578 C61.38671875 4.03515625 61.38671875 4.03515625 65 0 C70.94 0 76.88 0 83 0 C83 26.07 83 52.14 83 79 C77.72 79 72.44 79 67 79 C66.67 62.17 66.34 45.34 66 28 C60.91105081 37.60093097 60.91105081 37.60093097 55.82910156 47.20556641 C55.18319307 48.42103151 54.53704947 49.63637172 53.890625 50.8515625 C53.40311768 51.77714966 53.40311768 51.77714966 52.90576172 52.72143555 C50.81518232 56.64244027 48.64656013 60.4263353 46 64 C43.421875 64.5859375 43.421875 64.5859375 40.75 64.375 C39.41195312 64.29378906 39.41195312 64.29378906 38.046875 64.2109375 C37.37140625 64.14132812 36.6959375 64.07171875 36 64 C31.47137409 56.13182872 26.98986253 48.23810477 22.5625 40.3125 C22.12566895 39.53471191 21.68883789 38.75692383 21.23876953 37.95556641 C20.83126465 37.2238623 20.42375977 36.4921582 20.00390625 35.73828125 C19.64111572 35.08899658 19.2783252 34.43971191 18.90454102 33.77075195 C18 32 18 32 17 29 C16.67 45.5 16.34 62 16 79 C10.72 79 5.44 79 0 79 C0 52.93 0 26.86 0 0 Z " fill="#00ABCB" transform="translate(571,402)"/>
<path d="M0 0 C4.95 0 9.9 0 15 0 C15.33 8.58 15.66 17.16 16 26 C18.64 24.02 21.28 22.04 24 20 C31.08350041 17.6388332 38.30715218 19.00415383 45 22 C52.00923579 26.55239026 55.40969798 32.22909393 58 40 C58.25351361 43.22461628 58.23132244 46.45394816 58.25 49.6875 C58.270625 50.56083984 58.29125 51.43417969 58.3125 52.33398438 C58.36940397 61.85828608 55.79756892 68.09424108 49.2265625 75.01171875 C43.14213091 80.44500942 36.91595721 81.67145197 28.875 81.39453125 C23.10925176 80.60330765 18.95290483 78.19320299 15 74 C14.67 75.65 14.34 77.3 14 79 C9.38 79 4.76 79 0 79 C0 52.93 0 26.86 0 0 Z " fill="#00AACB" transform="translate(667,402)"/>
<path d="M0 0 C5.61 0 11.22 0 17 0 C17 26.4 17 52.8 17 80 C11.39 80 5.78 80 0 80 C0 68.78 0 57.56 0 46 C-10.23 46 -20.46 46 -31 46 C-31 57.22 -31 68.44 -31 80 C-36.28 80 -41.56 80 -47 80 C-47 53.93 -47 27.86 -47 1 C-41.72 1 -36.44 1 -31 1 C-31 11.23 -31 21.46 -31 32 C-20.77 32 -10.54 32 0 32 C0 21.44 0 10.88 0 0 Z " fill="#00A4C8" transform="translate(1184,401)"/>
<path d="M0 0 C5.89425753 4.67780663 10.03273194 10.16444772 10.98925781 17.77197266 C11.7471642 27.49716839 12.18792913 37.60624634 5.70703125 45.52734375 C-0.61910701 52.43580436 -7.51573594 55.90096314 -16.87109375 56.765625 C-23.64638249 56.95382746 -28.40245069 55.85877177 -34.29296875 52.52734375 C-35.36546875 51.92921875 -36.43796875 51.33109375 -37.54296875 50.71484375 C-43.46480436 46.0042927 -46.87001799 39.94857924 -48.29296875 32.52734375 C-49.34298591 21.59179921 -48.05097178 12.88864637 -41.10546875 4.21484375 C-29.97729063 -7.63282864 -13.49315422 -8.66596106 0 0 Z " fill="#00A8CA" transform="translate(781.29296875,426.47265625)"/>
<path d="M0 0 C17.16 0 34.32 0 52 0 C52 4.62 52 9.24 52 14 C40.12 14 28.24 14 16 14 C16 20.27 16 26.54 16 33 C25.9 33 35.8 33 46 33 C46 37.29 46 41.58 46 46 C36.1 46 26.2 46 16 46 C16 52.6 16 59.2 16 66 C27.88 66 39.76 66 52 66 C52 70.29 52 74.58 52 79 C34.84 79 17.68 79 0 79 C0 52.93 0 26.86 0 0 Z " fill="#00A6C9" transform="translate(999,402)"/>
<path d="M0 0 C7.06840819 5.06169909 14.40422394 11.27259946 16.50390625 20.09375 C16.61605469 20.82851563 16.72820312 21.56328125 16.84375 22.3203125 C14.09138726 22.48256969 11.34857524 22.6012453 8.59375 22.6953125 C7.81644531 22.74558594 7.03914063 22.79585938 6.23828125 22.84765625 C3.96216774 22.90601813 2.05262193 22.88244299 -0.15625 22.3203125 C-2.60546875 19.41015625 -2.60546875 19.41015625 -4.15625 16.3203125 C-6.83423473 13.21385021 -8.93191769 12.42002448 -13.08203125 12.08203125 C-21.88243794 11.78088033 -21.88243794 11.78088033 -29.15625 16.3203125 C-35.72656819 23.62066604 -36.47824374 30.56037289 -36.37109375 40.15625 C-35.8472155 47.87154789 -33.9273101 55.83076753 -28.15625 61.3203125 C-23.20441242 64.21667033 -18.77149685 65.11774401 -13.15625 64.3203125 C-7.27426191 62.52580766 -4.65129612 60.15169979 -1.15625 55.3203125 C-0.66125 54.3303125 -0.66125 54.3303125 -0.15625 53.3203125 C5.45375 53.3203125 11.06375 53.3203125 16.84375 53.3203125 C13.4896553 62.98010523 9.06318744 70.13770025 -0.00390625 75.2890625 C-9.55706128 79.86625475 -19.5698997 81.02255067 -29.78125 77.8828125 C-39.66395399 73.81849701 -46.74738282 65.90923485 -51.15625 56.3203125 C-55.41268768 46.0433622 -56.08784645 32.91569605 -52.53125 22.3203125 C-48.17806814 12.27450822 -41.80680775 3.83835079 -31.84375 -1.1171875 C-22.69029975 -4.40049031 -8.62752449 -4.89577779 0 0 Z " fill="#00A5CA" transform="translate(1111.15625,403.6796875)"/>
<path d="M0 0 C19.8 0 39.6 0 60 0 C60 4.62 60 9.24 60 14 C52.74 14 45.48 14 38 14 C38 35.45 38 56.9 38 79 C32.72 79 27.44 79 22 79 C22 57.55 22 36.1 22 14 C14.74 14 7.48 14 0 14 C0 9.38 0 4.76 0 0 Z " fill="#00A6C6" transform="translate(930,402)"/>
<path d="M0 0 C12.41803618 -1.80845187 12.41803618 -1.80845187 18 0 C22.54514493 3.85474317 24.79895215 9.59391756 27 15 C28.1063219 13.43902526 29.20995785 11.87614673 30.3125 10.3125 C30.92738281 9.44238281 31.54226563 8.57226562 32.17578125 7.67578125 C34.08026175 5.08044393 34.08026175 5.08044393 35.15625 2.1875 C37 0 37 0 38.9206543 -0.3918457 C41.3620084 -0.49377308 43.74724279 -0.43517341 46.1875 -0.3125 C47.03248047 -0.28994141 47.87746094 -0.26738281 48.74804688 -0.24414062 C50.83278798 -0.18524963 52.91661804 -0.09556798 55 0 C54.04415068 1.52239577 53.08506795 3.0427611 52.125 4.5625 C51.49851562 5.55636719 50.87203125 6.55023438 50.2265625 7.57421875 C48.63526916 10.05924215 46.97384337 12.48294934 45.2734375 14.89453125 C44.81437012 15.55445068 44.35530273 16.21437012 43.88232422 16.89428711 C42.97161364 18.19923146 42.0489701 19.4959406 41.11376953 20.78344727 C39.27155542 23.4433608 38 25.31067735 38 28.6015625 C39.21209104 31.50868711 40.70555535 33.90802439 42.5 36.5 C43.2115625 37.53898437 43.923125 38.57796875 44.65625 39.6484375 C46.27498602 41.97055286 47.90338108 44.28584405 49.53125 46.6015625 C49.94310547 47.19001953 50.35496094 47.77847656 50.77929688 48.38476562 C51.95094495 50.05506713 53.13153368 51.7190863 54.3125 53.3828125 C56 56 56 56 56 58 C43.74807287 59.92187092 43.74807287 59.92187092 38 58 C33.22210207 53.99297697 30.15582358 47.78160254 28 42 C28 41.34 28 40.68 28 40 C27.34 40 26.68 40 26 40 C25.5978125 41.28777344 25.5978125 41.28777344 25.1875 42.6015625 C23.08580043 48.61629483 20.94700486 53.81100395 16 58 C10.12392312 59.49050396 3.94825274 58.68633685 -2 58 C-1.08649746 56.53968257 -0.16881621 55.08197998 0.75 53.625 C1.37261719 52.635 1.99523437 51.645 2.63671875 50.625 C4.42069737 47.84164464 6.29840972 45.13676422 8.20703125 42.4375 C8.7597168 41.6439209 9.31240234 40.8503418 9.88183594 40.03271484 C10.9940702 38.43933101 12.12090471 36.85603084 13.26269531 35.28369141 C16.33143685 31.1724698 16.33143685 31.1724698 16.5703125 26.31640625 C16.05210937 25.55199219 15.53390625 24.78757812 15 24 C14.15888672 22.63294922 14.15888672 22.63294922 13.30078125 21.23828125 C12.64464844 20.27277344 11.98851562 19.30726563 11.3125 18.3125 C10.60738281 17.26964844 9.90226563 16.22679687 9.17578125 15.15234375 C6.57856903 11.38941689 3.93353087 7.66277249 1.25 3.9609375 C0 2 0 2 0 0 Z " fill="#00A6CA" transform="translate(870,423)"/>
<path d="M0 0 C4.62 0 9.24 0 14 0 C14 5.94 14 11.88 14 18 C18.95 18 23.9 18 29 18 C29 21.96 29 25.92 29 30 C24.38 30 19.76 30 15 30 C15.09684617 34.52118714 15.19951359 39.04143731 15.31738281 43.56201172 C15.35570301 45.10034021 15.39055056 46.63875925 15.421875 48.17724609 C15.46746059 50.38672276 15.5254634 52.59557448 15.5859375 54.8046875 C15.59748871 55.49432587 15.60903992 56.18396423 15.62094116 56.89450073 C15.64951022 60.8920154 15.64951022 60.8920154 18 64 C20.66242821 64.46290221 20.66242821 64.46290221 23.625 64.625 C25.39875 64.74875 27.1725 64.8725 29 65 C29 68.96 29 72.92 29 77 C22.98889151 79.00370283 15.44281974 79.2194415 9.44140625 77.09375 C4.1589504 73.97819948 0.94943764 69.84831293 -1 64 C-1.08481773 61.41369776 -1.11598229 58.85521944 -1.09765625 56.26953125 C-1.0962413 55.51911057 -1.09482635 54.76868988 -1.09336853 53.99552917 C-1.0877756 51.6011454 -1.07522444 49.20685547 -1.0625 46.8125 C-1.05748408 45.18815239 -1.05292134 43.56380332 -1.04882812 41.93945312 C-1.03780848 37.95959931 -1.02054873 33.97981556 -1 30 C-4.3 30 -7.6 30 -11 30 C-11 26.04 -11 22.08 -11 18 C-7.37 18 -3.74 18 0 18 C0 12.06 0 6.12 0 0 Z " fill="#00A9C9" transform="translate(806,405)"/>
<path d="M0 0 C2.64 0 5.28 0 8 0 C8 1.98 8 3.96 8 6 C8.66 6 9.32 6 10 6 C10.268125 5.38125 10.53625 4.7625 10.8125 4.125 C12 2 12 2 15 0 C20.78512256 -0.66424638 26.19215982 -0.79291236 31.5625 1.5625 C37.13580478 7.13580478 39.12915979 12.9759468 39.25 20.75 C39.16679945 26.9673503 38.71721961 32.12553389 34.3125 36.78515625 C30.11412919 40.48497053 27.42534097 42.16518924 21.75 42.3125 C20.81671875 42.34988281 19.8834375 42.38726563 18.921875 42.42578125 C16 42 16 42 10 38 C9.67 43.61 9.34 49.22 9 55 C6.03 55 3.06 55 0 55 C0 36.85 0 18.7 0 0 Z " fill="#DDE0E2" transform="translate(752,527)"/>
<path d="M0 0 C26 0 26 0 33 4 C36.74269785 8.82611039 38.36460463 12.64566976 38.28515625 18.80859375 C37.65124583 23.68015192 35.11834242 27.58343294 32.125 31.375 C27.27601664 35.0830461 22.01639917 35.2722524 16.125 35.125 C13.77375 35.08375 11.4225 35.0425 9 35 C9 41.6 9 48.2 9 55 C6.03 55 3.06 55 0 55 C0 36.85 0 18.7 0 0 Z " fill="#DBDEE1" transform="translate(571,513)"/>
<path d="M0 0 C5.56876803 3.00883327 8.76788261 7.39349157 10.73046875 13.28125 C11.56986795 20.67679876 11.85899984 27.5365185 7.23046875 33.6640625 C3.46154283 37.72743575 0.02306103 41.01246696 -5.7578125 41.484375 C-15.59989891 41.64772913 -15.59989891 41.64772913 -20.26953125 38.28125 C-26.08399058 32.60689812 -28.5524074 27.71838743 -28.70703125 19.46875 C-28.61333847 13.07756397 -27.62597336 8.99380455 -23.26953125 4.28125 C-16.96877471 -1.5694525 -8.21563173 -2.60185239 0 0 Z " fill="#E8EAEC" transform="translate(668.26953125,527.71875)"/>
<path d="M0 0 C5.34785785 3.07876676 8.56612358 7.19446449 10.52734375 13.078125 C11.37583034 21.72056699 10.90585602 29.00321155 5.52734375 36.078125 C1.35021541 40.34207587 -2.71036978 41.38844786 -8.59765625 41.578125 C-14.18422568 41.30441117 -18.02220206 40.52857919 -22.08984375 36.4609375 C-27.90260813 29.98067864 -28.99876872 25.40504829 -28.84375 16.6328125 C-28.21188924 10.5802515 -26.07827357 6.68374232 -21.81640625 2.421875 C-15.6417846 -2.28758219 -7.16813311 -2.67247933 0 0 Z " fill="#E7E9EB" transform="translate(1153.47265625,527.921875)"/>
<path d="M0 0 C4.75410686 2.94874983 7.97074039 7.23120674 10.16015625 12.33984375 C10.16015625 13.32984375 10.16015625 14.31984375 10.16015625 15.33984375 C7.08756104 15.69437397 4.21877624 15.86554406 1.16015625 15.33984375 C-1.08984375 12.52734375 -1.08984375 12.52734375 -2.83984375 9.33984375 C-8.18331015 5.34856344 -13.42237069 5.59099343 -19.83984375 6.33984375 C-24.21796763 8.13800177 -26.08797565 10.30995617 -28.21484375 14.40234375 C-31.17009296 21.93266496 -30.71451699 29.87600324 -27.8984375 37.39453125 C-25.83026839 41.19507818 -22.68730949 43.41611088 -18.83984375 45.33984375 C-13.96288458 45.74822036 -9.3970989 45.98870006 -4.83984375 44.08984375 C-0.18954886 40.02083572 0.33483572 37.72846559 2.16015625 31.33984375 C-2.78984375 31.33984375 -7.73984375 31.33984375 -12.83984375 31.33984375 C-12.83984375 29.02984375 -12.83984375 26.71984375 -12.83984375 24.33984375 C-4.91984375 24.33984375 3.00015625 24.33984375 11.16015625 24.33984375 C11.16015625 33.79382585 10.48794418 41.25088771 3.84765625 48.33984375 C-2.6967866 54.08517569 -8.19623076 54.85608713 -16.75390625 54.62109375 C-23.79064723 53.97977052 -29.14607266 50.5577332 -33.83984375 45.33984375 C-39.65220816 36.06815671 -40.14497022 25.36218074 -38.4140625 14.72265625 C-36.26610088 8.16017227 -31.08740673 2.36586465 -25.21484375 -1.16015625 C-17.23397031 -4.62472146 -7.74924423 -3.54071159 0 0 Z " fill="#E8EAEB" transform="translate(882.83984375,514.66015625)"/>
<path d="M0 0 C2.64 0 5.28 0 8 0 C8.33 1.32 8.66 2.64 9 4 C9.5775 3.34 10.155 2.68 10.75 2 C15.55622293 -0.95767565 20.47993022 -0.84281671 26 0 C28.37109375 1.40234375 28.37109375 1.40234375 30 3 C30 3.66 30 4.32 30 5 C30.886875 4.175 31.77375 3.35 32.6875 2.5 C37.93558877 -1.24863484 43.82512354 -1.00004426 50 0 C53.98708384 1.88237787 56.44853394 4.90524714 58 9 C58.22705078 12.39160156 58.22705078 12.39160156 58.1953125 16.390625 C58.1924826 17.09523865 58.18965271 17.79985229 58.18673706 18.52581787 C58.17557801 20.7673876 58.15048193 23.00855186 58.125 25.25 C58.11496464 26.77343171 58.10583976 28.29686971 58.09765625 29.8203125 C58.07565291 33.54700586 58.04115272 37.27346333 58 41 C55.36 41 52.72 41 50 41 C49.98541748 40.14245117 49.97083496 39.28490234 49.95581055 38.40136719 C49.89464522 35.21039587 49.82047238 32.02006413 49.73754883 28.82958984 C49.70435807 27.45047333 49.67630783 26.07122289 49.65356445 24.69189453 C49.61991358 22.70577694 49.56605271 20.72003441 49.51171875 18.734375 C49.48553467 17.54038086 49.45935059 16.34638672 49.43237305 15.11621094 C48.96677752 11.76055805 48.45405872 10.31110045 46 8 C41.89130142 7.30826546 41.89130142 7.30826546 38 8 C34.27016322 11.79565486 33.4868179 14.34672009 33.390625 19.61328125 C33.35839844 20.86044922 33.32617188 22.10761719 33.29296875 23.39257812 C33.27878906 24.68615234 33.26460937 25.97972656 33.25 27.3125 C33.20552734 29.28186523 33.20552734 29.28186523 33.16015625 31.29101562 C33.08954411 34.52740535 33.03680123 37.76307811 33 41 C30.36 41 27.72 41 25 41 C24.98541748 40.10692139 24.97083496 39.21384277 24.95581055 38.29370117 C24.89472923 34.97782722 24.82057522 31.66278101 24.73754883 28.34741211 C24.70430999 26.91295372 24.67627465 25.47836487 24.65356445 24.04370117 C24.61999729 21.98039193 24.56768587 19.91827697 24.51171875 17.85546875 C24.48553467 16.61434326 24.45935059 15.37321777 24.43237305 14.09448242 C24.23931176 11.05275984 24.23931176 11.05275984 22.71411133 9.1027832 C20.2897026 7.54302615 17.86033815 7.53689425 15.03515625 7.40625 C11.83578877 8.33965471 10.81247819 10.27190424 9 13 C8.36450435 16.17793092 8.36450435 16.17793092 8.390625 19.61328125 C8.35839844 20.86044922 8.32617188 22.10761719 8.29296875 23.39257812 C8.27169922 25.33293945 8.27169922 25.33293945 8.25 27.3125 C8.22035156 28.62541016 8.19070313 29.93832031 8.16015625 31.29101562 C8.08954411 34.52740535 8.03680123 37.76307811 8 41 C5.36 41 2.72 41 0 41 C0 27.47 0 13.94 0 0 Z " fill="#E9EBED" transform="translate(686,527)"/>
<path d="M0 0 C3.81118446 3.71089013 6.95375391 7.10126434 8.375 12.3125 C8.375 15.2825 8.375 18.2525 8.375 21.3125 C-1.525 21.3125 -11.425 21.3125 -21.625 21.3125 C-20.30825158 27.51910182 -20.30825158 27.51910182 -16.625 31.3125 C-12.41150094 32.71699969 -8.46605837 32.99078466 -4.25 31.4375 C-2.46590097 30.39499579 -2.46590097 30.39499579 -1.625 28.3125 C1.345 28.3125 4.315 28.3125 7.375 28.3125 C5.01966361 33.76696323 2.47275698 36.86757309 -2.953125 39.3984375 C-7.97207414 41.11544642 -13.6473921 41.290222 -18.71875 39.625 C-23.94724042 36.87316294 -27.36986875 32.88253066 -29.9375 27.625 C-31.6114726 19.55949564 -31.3847832 12.73845249 -27.21484375 5.484375 C-20.88106352 -3.16816015 -9.48966859 -4.41760434 0 0 Z " fill="#E7E9EB" transform="translate(1016.625,528.6875)"/>
<path d="M0 0 C4.47849036 3.7320753 7.16201036 7.98603108 9 13.5 C9 16.14 9 18.78 9 21.5 C-1.23 21.5 -11.46 21.5 -22 21.5 C-19.15170667 28.52911546 -19.15170667 28.52911546 -14 32.5 C-8.97658139 33.0480093 -6.07342386 32.49516461 -2 29.5 C-1.67 29.17 -1.34 28.84 -1 28.5 C1.67058851 28.35884839 4.32432238 28.45752893 7 28.5 C6.52403971 32.78364261 4.16126242 34.76023924 1 37.5 C-4.34102725 41.18785215 -9.72942382 41.27491495 -16 40.5 C-21.07591012 39.13670657 -24.06432331 36.88752908 -26.9375 32.5 C-30.39700651 26.49570395 -30.77526095 20.3150846 -30 13.5 C-28.39343343 8.18481715 -25.98218713 3.75563267 -21.5 0.375 C-15.2189697 -2.97408826 -6.42171339 -3.1335713 0 0 Z " fill="#E4E6E8" transform="translate(929,528.5)"/>
<path d="M0 0 C3.32335658 1.87169085 5.09485997 4.65846994 6.76171875 7.9921875 C6.84811744 10.40057428 6.87739639 12.77952631 6.859375 15.1875 C6.85796005 15.89494354 6.8565451 16.60238708 6.85508728 17.33126831 C6.84948475 19.59328419 6.83693193 21.85520148 6.82421875 24.1171875 C6.81920407 25.64973815 6.81464111 27.18229036 6.81054688 28.71484375 C6.79951452 32.47399638 6.78224827 36.23307522 6.76171875 39.9921875 C4.45171875 39.9921875 2.14171875 39.9921875 -0.23828125 39.9921875 C-0.23828125 38.6721875 -0.23828125 37.3521875 -0.23828125 35.9921875 C-0.69976563 36.353125 -1.16125 36.7140625 -1.63671875 37.0859375 C-7.12718926 40.9922011 -11.55363436 42.04279694 -18.23828125 40.9921875 C-22.38005381 39.28145536 -24.97014974 36.85641155 -27.23828125 32.9921875 C-27.93741561 28.71969974 -27.69097834 25.14908007 -26.11328125 21.1171875 C-22.93293084 17.51279037 -18.8882216 15.87982935 -14.23828125 14.9921875 C-11.98920973 14.92428075 -9.7382652 14.90718766 -7.48828125 14.9296875 C-5.73257812 14.94322266 -5.73257812 14.94322266 -3.94140625 14.95703125 C-3.049375 14.96863281 -2.15734375 14.98023438 -1.23828125 14.9921875 C-1.83689867 12.64047619 -2.50752477 10.3062497 -3.23828125 7.9921875 C-5.70644539 6.75810543 -7.48489326 6.79021171 -10.23828125 6.7421875 C-11.12515625 6.71640625 -12.01203125 6.690625 -12.92578125 6.6640625 C-13.68890625 6.77234375 -14.45203125 6.880625 -15.23828125 6.9921875 C-16.22828125 8.4771875 -16.22828125 8.4771875 -17.23828125 9.9921875 C-19.40234375 10.28515625 -19.40234375 10.28515625 -21.86328125 10.1796875 C-22.68054687 10.15261719 -23.4978125 10.12554688 -24.33984375 10.09765625 C-24.96632813 10.06285156 -25.5928125 10.02804687 -26.23828125 9.9921875 C-24.2855317 4.35091102 -22.67960657 1.93957205 -17.23828125 -1.0078125 C-11.23957398 -3.00738159 -5.74906971 -2.37191481 0 0 Z " fill="#EAECED" transform="translate(1083.23828125,528.0078125)"/>
<path d="M0 0 C4.95 0 9.9 0 15 0 C15 19.14 15 38.28 15 58 C10.05 58 5.1 58 0 58 C0 38.86 0 19.72 0 0 Z " fill="#00A8CC" transform="translate(847,423)"/>
<path d="M0 0 C4.68170268 1.74416374 7.21249191 3.87035839 10 8 C11.14330513 11.42991538 11.20381651 14.1986416 11.25 17.8125 C11.27578125 19.01519531 11.3015625 20.21789062 11.328125 21.45703125 C10.85291707 26.5881455 9.27083476 29.82447784 5.5 33.3125 C1.30944484 36.14112473 -2.02036155 36.41496987 -7 36 C-11.17229431 34.5037879 -13.51390219 32.7777565 -15.875 29 C-18.39799753 22.27200658 -18.9591048 16.19701601 -16.875 9.25 C-12.87965887 2.32474205 -7.99580401 -0.5330536 0 0 Z " fill="#08121E" transform="translate(766,434)"/>
<path d="M0 0 C4.42349253 2.3471593 6.42739928 5.28219784 8 10 C8.675517 17.18083821 8.85461087 23.75287204 5 30 C0.81537503 33.87843289 -2.03853539 35.44134481 -7.8359375 35.3359375 C-11.74428219 34.72922695 -14.34976669 32.87459169 -17 30 C-20.61143366 24.33952597 -20.86038257 17.5048704 -20 11 C-16.65224143 0.56186047 -10.45233119 -1.27432531 0 0 Z " fill="#08131E" transform="translate(702,435)"/>
<path d="M0 0 C2.31 0 4.62 0 7 0 C7.33 1.65 7.66 3.3 8 5 C8.556875 4.175 9.11375 3.35 9.6875 2.5 C12.62873592 -0.48361684 15.42751275 -0.42620635 19.5 -0.5 C24.25624568 -0.45554911 27.14388086 0.16260737 31 3 C34.73406608 8.20102061 35.12530965 12.42940022 35.09765625 18.734375 C35.09443359 20.02988281 35.09121094 21.32539062 35.08789062 22.66015625 C35.07953598 24.02343817 35.07107104 25.38671942 35.0625 26.75 C35.05748168 28.12890465 35.05291935 29.50781104 35.04882812 30.88671875 C35.03704093 34.25785659 35.02058635 37.62890628 35 41 C32.03 41 29.06 41 26 41 C25.98541748 40.10692139 25.97083496 39.21384277 25.95581055 38.29370117 C25.89472923 34.97782722 25.82057522 31.66278101 25.73754883 28.34741211 C25.70430999 26.91295372 25.67627465 25.47836487 25.65356445 24.04370117 C25.61999729 21.98039193 25.56768587 19.91827697 25.51171875 17.85546875 C25.48553467 16.61434326 25.45935059 15.37321777 25.43237305 14.09448242 C25.23986846 11.05198548 25.23986846 11.05198548 23.71020508 9.1027832 C21.31420392 7.55778146 18.92820536 7.5377979 16.1328125 7.40625 C12.74246551 8.35008286 11.22985639 10.3397531 9 13 C8.22876561 16.17047234 8.22876561 16.17047234 8.29296875 19.61328125 C8.26396484 20.86044922 8.23496094 22.10761719 8.20507812 23.39257812 C8.19927734 24.68615234 8.19347656 25.97972656 8.1875 27.3125 C8.16236328 28.62541016 8.13722656 29.93832031 8.11132812 31.29101562 C8.05248032 34.52764489 8.01618063 37.76292218 8 41 C5.36 41 2.72 41 0 41 C0 27.47 0 13.94 0 0 Z " fill="#E2E4E6" transform="translate(945,527)"/>
<path d="M0 0 C2.97 0 5.94 0 9 0 C9 3.96 9 7.92 9 12 C11.97 12 14.94 12 18 12 C18 14.64 18 17.28 18 20 C15.03 20 12.06 20 9 20 C9.10950024 23.9589232 9.24021668 27.91686326 9.375 31.875 C9.4059375 33.00292969 9.436875 34.13085938 9.46875 35.29296875 C9.50742187 36.36933594 9.54609375 37.44570313 9.5859375 38.5546875 C9.63306885 40.04718018 9.63306885 40.04718018 9.68115234 41.56982422 C9.77247083 44.17854517 9.77247083 44.17854517 12 46 C13.98821313 46.39764263 15.98944339 46.73775349 18 47 C18 49.31 18 51.62 18 54 C13.32120251 54.3743038 9.92219989 54.44402217 5.625 52.375 C1.97886402 49.07611507 0.19669851 46.2676991 -0.23730469 41.26416016 C-0.2950898 38.04593466 -0.26140816 34.84284761 -0.1875 31.625 C-0.17396484 30.50738281 -0.16042969 29.38976562 -0.14648438 28.23828125 C-0.11127164 25.49168789 -0.06202096 22.74609711 0 20 C-2.31 20 -4.62 20 -7 20 C-7 17.36 -7 14.72 -7 12 C-4.69 12 -2.38 12 0 12 C0 8.04 0 4.08 0 0 Z " fill="#DDDFE1" transform="translate(800,515)"/>
<path d="M0 0 C2.05078125 0.03255208 4.1015625 0.06510417 6.15234375 0.09765625 C6.15234375 4.05765625 6.15234375 8.01765625 6.15234375 12.09765625 C9.12234375 12.09765625 12.09234375 12.09765625 15.15234375 12.09765625 C15.15234375 14.40765625 15.15234375 16.71765625 15.15234375 19.09765625 C12.18234375 19.09765625 9.21234375 19.09765625 6.15234375 19.09765625 C6.23308235 23.03600503 6.34593752 26.97278952 6.46484375 30.91015625 C6.48740234 32.02970703 6.50996094 33.14925781 6.53320312 34.30273438 C6.58637695 35.91245117 6.58637695 35.91245117 6.640625 37.5546875 C6.66680908 38.5444458 6.69299316 39.5342041 6.7199707 40.55395508 C7.21614018 43.47297808 7.7703491 44.38815914 10.15234375 46.09765625 C13.26073396 46.82457885 13.26073396 46.82457885 16.15234375 47.09765625 C16.15234375 49.40765625 16.15234375 51.71765625 16.15234375 54.09765625 C10.8319971 54.67572208 6.4991597 54.99974317 2.15234375 51.53515625 C-1.74560505 48.0776007 -2.69768317 43.57531653 -3.00097656 38.56469727 C-3.0438884 35.76020921 -3.02249393 32.96448413 -2.97265625 30.16015625 C-2.96363281 29.19013672 -2.95460938 28.22011719 -2.9453125 27.22070312 C-2.92191732 24.84609218 -2.88913801 22.47200849 -2.84765625 20.09765625 C-5.15765625 20.09765625 -7.46765625 20.09765625 -9.84765625 20.09765625 C-9.84765625 17.45765625 -9.84765625 14.81765625 -9.84765625 12.09765625 C-7.53765625 12.09765625 -5.22765625 12.09765625 -2.84765625 12.09765625 C-2.85925781 11.31519531 -2.87085938 10.53273438 -2.8828125 9.7265625 C-2.89183594 8.71464844 -2.90085937 7.70273437 -2.91015625 6.66015625 C-2.92175781 5.65082031 -2.93335938 4.64148438 -2.9453125 3.6015625 C-2.81063978 0.1485539 -2.81063978 0.1485539 0 0 Z " fill="#E8EAEB" transform="translate(1104.84765625,514.90234375)"/>
<path d="M0 0 C3.43140129 1.37256052 4.71410041 2.58593853 6.8125 5.625 C8.74838169 11.12697953 8.75013018 15.79128337 6.875 21.3125 C4.53759132 24.66278577 2.70703371 26.25139919 -1 28 C-3.92406247 28.33827389 -6.2572411 28.07791553 -9 27 C-11.68346405 24.83868782 -13.4344161 22.30519361 -14.8125 19.125 C-15.3736022 12.76584175 -15.58483078 8.50527584 -12 3 C-8.66992018 -0.70008868 -4.69544374 -0.6734501 0 0 Z " fill="#09131E" transform="translate(663,534)"/>
<path d="M0 0 C3.51049159 2.92540966 4.96353265 5.72649489 5.5703125 10.27734375 C5.82718394 15.97132733 5.20292047 19.49473678 1.25 23.875 C-1.72870417 26.43999525 -3.90306664 27.12550802 -7.75 26.9375 C-10.94070392 26.39465812 -12.55663891 25.49600513 -14.6875 23.0625 C-17.49038462 18.73076923 -17.49038462 18.73076923 -17.75 15.875 C-17.853125 14.8025 -17.95625 13.73 -18.0625 12.625 C-17.68662605 8.11451262 -16.46793456 4.52407881 -13.75 0.875 C-9.29566407 -1.92590089 -4.85356117 -1.98554775 0 0 Z " fill="#09131E" transform="translate(1150.75,535.125)"/>
<path d="M0 0 C3.24079649 2.4823122 5.73199154 5.08070111 7 9 C7.57889293 15.02048647 6.50099426 20.87010076 2.6640625 25.671875 C-0.45741827 28.16319768 -4.11388324 28.34425566 -8 28 C-11.62999707 26.16621266 -13.6992744 23.90217681 -15 20 C-16.00724893 7.63230413 -16.00724893 7.63230413 -13.125 3.25 C-9.33967221 -0.75799413 -5.29182382 -0.82398641 0 0 Z " fill="#09131D" transform="translate(776,534)"/>
<path d="M0 0 C1.75570313 0.01353516 1.75570313 0.01353516 3.546875 0.02734375 C4.43890625 0.03894531 5.3309375 0.05054688 6.25 0.0625 C5.92 1.0525 5.59 2.0425 5.25 3.0625 C3.6 3.3925 1.95 3.7225 0.25 4.0625 C0.25 4.3925 0.25 4.7225 0.25 5.0625 C-2.39 5.7225 -5.03 6.3825 -7.75 7.0625 C-3.13 7.0625 1.49 7.0625 6.25 7.0625 C6.25 13.0625 6.25 13.0625 4.6875 15.8125 C1.70730056 18.56345333 -0.82342175 19.23187768 -4.75 20.0625 C-2.77 20.0625 -0.79 20.0625 1.25 20.0625 C1.58 21.0525 1.91 22.0425 2.25 23.0625 C0.54284768 25.17133522 -0.33764921 25.99121224 -3.0546875 26.4609375 C-9.73601512 26.40001354 -13.07123753 25.52406551 -18.0625 20.9375 C-20.41805832 16.92432657 -20.41964915 13.60950041 -19.75 9.0625 C-18.31479594 5.3947563 -17.2053841 4.33379265 -13.8125 2.3125 C-8.99090231 0.34450094 -5.23742137 -0.05237421 0 0 Z " fill="#E3E5E7" transform="translate(1075.75,542.9375)"/>
<path d="M0 0 C2.64 0 5.28 0 8 0 C8.33 1.98 8.66 3.96 9 6 C9.78375 5.195625 10.5675 4.39125 11.375 3.5625 C14.62895042 0.38602459 15.07120797 0.01601366 19.625 -0.0625 C20.73875 -0.041875 21.8525 -0.02125 23 0 C23 2.64 23 5.28 23 8 C22.09507812 8.14695312 22.09507812 8.14695312 21.171875 8.296875 C20.37265625 8.44640625 19.5734375 8.5959375 18.75 8.75 C17.96109375 8.88921875 17.1721875 9.0284375 16.359375 9.171875 C13.3086864 10.2426465 12.03141019 11.48382147 10 14 C9.36085024 16.98687874 9.36085024 16.98687874 9.390625 20.296875 C9.35839844 21.50214844 9.32617188 22.70742188 9.29296875 23.94921875 C9.27169922 25.83060547 9.27169922 25.83060547 9.25 27.75 C9.22035156 29.01972656 9.19070313 30.28945313 9.16015625 31.59765625 C9.08946049 34.73183485 9.03675988 37.86526956 9 41 C6.03 41 3.06 41 0 41 C0 27.47 0 13.94 0 0 Z " fill="#E3E6E8" transform="translate(615,527)"/>
<path d="M0 0 C9.64129757 -0.61759201 9.64129757 -0.61759201 14.4375 1.5625 C19.18891006 6.08213396 21.71590763 11.17567963 22.203125 17.734375 C22.41534214 31.38701075 22.41534214 31.38701075 17.3125 36.78515625 C12.06472035 41.40976207 8.66555226 42.40673209 1.640625 42.3515625 C-1 42 -1 42 -3.625 39.75 C-4.80189389 37.39621222 -5.50569668 35.55390049 -6 33 C-6.63654342 31.6520257 -7.29605388 30.31403276 -8 29 C-7.030625 29.845625 -6.06125 30.69125 -5.0625 31.5625 C-1.23302676 34.31566508 1.4181039 34.32613931 5.984375 33.6875 C8.38108346 32.87001804 9.42805343 31.97079869 11 30 C12.87033209 24.88119637 14.51263652 19.31274242 12.13671875 14.109375 C11.13699266 12.37894002 10.07082574 10.68736177 9 9 C8.67 8.01 8.34 7.02 8 6 C7.34 6 6.68 6 6 6 C6 5.34 6 4.68 6 4 C5.38125 3.896875 4.7625 3.79375 4.125 3.6875 C2 3 2 3 0 0 Z " fill="#E8EAEB" transform="translate(769,527)"/>
<path d="M0 0 C4.145625 -0.0825 8.29125 -0.165 12.5625 -0.25 C14.50298218 -0.30462402 14.50298218 -0.30462402 16.48266602 -0.36035156 C23.22177393 -0.42519593 27.60166866 -0.18201746 33 4 C36.74269785 8.82611039 38.36460463 12.64566976 38.28515625 18.80859375 C37.65600636 23.64356756 35.08559692 27.47212285 32.3125 31.375 C25.34977341 36.2677268 17.01238844 35.00324322 9 34 C9 33.67 9 33.34 9 33 C14.94 32.505 14.94 32.505 21 32 C21 31.34 21 30.68 21 30 C17.04 29.67 13.08 29.34 9 29 C9 28.67 9 28.34 9 28 C9.79664063 27.97421875 10.59328125 27.9484375 11.4140625 27.921875 C17.79171527 27.58049213 22.15729322 27.31917091 27 23 C28.59251643 19.81496713 28.39129761 16.4667595 28 13 C26.25746655 9.76386646 25.52814056 9.17604685 22 8 C19.60745424 7.77439324 17.21071877 7.59151405 14.8125 7.4375 C11.4403125 7.2209375 11.4403125 7.2209375 8 7 C8 13.93 8 20.86 8 28 C7.67 28 7.34 28 7 28 C7 20.74 7 13.48 7 6 C10.58072917 5.83723958 14.16145833 5.67447917 17.7421875 5.51171875 C18.81726563 5.34285156 19.89234375 5.17398438 21 5 C21.66 4.01 22.32 3.02 23 2 C16.07 1.67 9.14 1.34 2 1 C2 16.84 2 32.68 2 49 C1.67 49 1.34 49 1 49 C0.67 32.83 0.34 16.66 0 0 Z " fill="#ECEEEF" transform="translate(571,513)"/>
<path d="M0 0 C3.59126646 3.35012627 6.90388776 7.12839003 8 12 C7.67 14.31 7.34 16.62 7 19 C-2.9 19 -12.8 19 -23 19 C-22.67 17.68 -22.34 16.36 -22 15 C-21.896875 14.030625 -21.79375 13.06125 -21.6875 12.0625 C-20.87666615 8.45060377 -19.55983113 6.63740177 -17 4 C-16.34 4 -15.68 4 -15 4 C-15 2.35 -15 0.7 -15 -1 C-4.96815287 -2.64968153 -4.96815287 -2.64968153 0 0 Z " fill="#DCDFE1" transform="translate(1017,529)"/>
<path d="M0 0 C2.31 0 4.62 0 7 0 C7.33 1.98 7.66 3.96 8 6 C8.4125 5.566875 8.825 5.13375 9.25 4.6875 C12.54172757 1.51333413 14.72483755 -0.42540281 19.4375 -0.375 C20.613125 -0.25125 21.78875 -0.1275 23 0 C23 2.64 23 5.28 23 8 C22.31292969 8.10957031 21.62585937 8.21914063 20.91796875 8.33203125 C20.01691406 8.49058594 19.11585937 8.64914062 18.1875 8.8125 C17.29417969 8.96332031 16.40085937 9.11414063 15.48046875 9.26953125 C12.78017975 10.06473447 11.73519448 10.82690155 10 13 C8.65893595 15.6821281 8.78549581 17.88398032 8.68359375 20.8828125 C8.64169922 22.04941406 8.59980469 23.21601562 8.55664062 24.41796875 C8.49766602 26.25294922 8.49766602 26.25294922 8.4375 28.125 C8.39431641 29.35605469 8.35113281 30.58710937 8.30664062 31.85546875 C8.20031296 34.90352853 8.09828219 37.9516719 8 41 C5.36 41 2.72 41 0 41 C0 27.47 0 13.94 0 0 Z " fill="#E9EBED" transform="translate(1032,527)"/>
<path d="M0 0 C2.31 0 4.62 0 7 0 C7.33 1.98 7.66 3.96 8 6 C8.78375 5.195625 9.5675 4.39125 10.375 3.5625 C13.62895042 0.38602459 14.07120797 0.01601366 18.625 -0.0625 C19.73875 -0.041875 20.8525 -0.02125 22 0 C22 2.64 22 5.28 22 8 C19.11914062 8.14648438 19.11914062 8.14648438 16.23828125 8.29296875 C12.74997973 9.39485806 10.67539644 10.78019192 9 14 C8.23449217 18.59877394 8.20917098 23.15805538 8.1875 27.8125 C8.16236328 29.07771484 8.13722656 30.34292969 8.11132812 31.64648438 C8.05249509 34.76463543 8.01618494 37.88138367 8 41 C5.36 41 2.72 41 0 41 C0 27.47 0 13.94 0 0 Z " fill="#ECEEEF" transform="translate(1171,527)"/>
<path d="M0 0 C-0.66 0 -1.32 0 -2 0 C-2 0.66 -2 1.32 -2 2 C-3.7015625 2.4021875 -3.7015625 2.4021875 -5.4375 2.8125 C-7.2009375 3.4003125 -7.2009375 3.4003125 -9 4 C-9.33 4.99 -9.66 5.98 -10 7 C-10.474375 7.45375 -10.94875 7.9075 -11.4375 8.375 C-21.03345284 18.35479095 -16.07402208 45.33464542 -16.01831055 58.27633667 C-15.98515696 66.10867325 -15.97368608 73.94103716 -15.96875 81.7734375 C-15.96820114 82.58618322 -15.96765228 83.39892895 -15.96708679 84.23630333 C-15.959866 104.13883187 -16.21252084 124.03736287 -16.5 143.9375 C-16.51202454 144.7746265 -16.52404907 145.61175301 -16.53643799 146.47424698 C-16.68294575 156.64962643 -16.83697673 166.82487096 -17 177 C-17.66 177 -18.32 177 -19 177 C-19.11694121 156.18098317 -19.20504101 135.36202072 -19.25906086 114.54274178 C-19.28481294 104.87538786 -19.31990604 95.20823833 -19.37719727 85.54101562 C-19.42712413 77.11240589 -19.45931279 68.68394423 -19.47044247 60.25519073 C-19.47694556 55.79455533 -19.4921667 51.33434345 -19.52865028 46.87384415 C-19.56275677 42.66964248 -19.57302367 38.46603609 -19.56553841 34.26170921 C-19.56690645 32.72427185 -19.5767517 31.18681321 -19.59602737 29.64949608 C-19.69988223 20.93423517 -19.42997728 13.23605579 -14 6 C-5.61934478 -1.68580344 -5.61934478 -1.68580344 0 0 Z " fill="#00B5D5" transform="translate(344,377)"/>
<path d="M0 0 C19.8 0 39.6 0 60 0 C60 4.62 60 9.24 60 14 C52.74 14 45.48 14 38 14 C38 35.45 38 56.9 38 79 C32.72 79 27.44 79 22 79 C22 57.55 22 36.1 22 14 C14.74 14 7.48 14 0 14 C0 9.38 0 4.76 0 0 Z M2 2 C2 5.3 2 8.6 2 12 C8.6 12.33 15.2 12.66 22 13 C22.33 34.45 22.66 55.9 23 78 C27.62 78 32.24 78 37 78 C37.33 56.55 37.66 35.1 38 13 C47.9 12.505 47.9 12.505 58 12 C58 8.7 58 5.4 58 2 C39.52 2 21.04 2 2 2 Z " fill="#01B5D3" transform="translate(930,402)"/>
<path d="M0 0 C13.52506793 -0.40985054 13.52506793 -0.40985054 18 3 C20.45665197 6.68497796 20.70086491 9.71971786 20 14 C18.20636089 16.8100346 16.98119065 18.50940468 14 20 C9.33091139 20.13996069 4.67201378 20.04247285 0 20 C0 13.4 0 6.8 0 0 Z " fill="#060F1A" transform="translate(580,520)"/>
<path d="M0 0 C2.31 0 4.62 0 7 0 C7.33 1.65 7.66 3.3 8 5 C8.78375 4.175 9.5675 3.35 10.375 2.5 C13 0 13 0 15 0 C15.33 0.99 15.66 1.98 16 3 C14.35 3.66 12.7 4.32 11 5 C11.99 5.99 12.98 6.98 14 8 C13.18958252 8.68860107 12.37916504 9.37720215 11.54418945 10.08666992 C8.50661024 13.56497649 8.35521279 15.0694666 8.29296875 19.61328125 C8.26396484 20.86044922 8.23496094 22.10761719 8.20507812 23.39257812 C8.19927734 24.68615234 8.19347656 25.97972656 8.1875 27.3125 C8.16236328 28.62541016 8.13722656 29.93832031 8.11132812 31.29101562 C8.05248032 34.52764489 8.01618063 37.76292218 8 41 C5.36 41 2.72 41 0 41 C0 27.47 0 13.94 0 0 Z " fill="#ECEEEE" transform="translate(945,527)"/>
<path d="M0 0 C3.41358465 1.57163198 5.25249498 3.91271998 7.375 7 C8.12860024 9.41152078 8.13952346 11.48857781 8 14 C7.67 14 7.34 14 7 14 C6.67 22.58 6.34 31.16 6 40 C4.68 40 3.36 40 2 40 C1.98018066 39.28457031 1.96036133 38.56914063 1.93994141 37.83203125 C1.84400673 34.5543514 1.73460702 31.27724999 1.625 28 C1.5940625 26.87464844 1.563125 25.74929688 1.53125 24.58984375 C1.3150863 18.42917826 0.78122909 12.90846723 -1 7 C-5.455 6.01 -5.455 6.01 -10 5 C-10 4.34 -10 3.68 -10 3 C-11.65 3.33 -13.3 3.66 -15 4 C-15 3.01 -15 2.02 -15 1 C-10.56242018 -1.21878991 -4.81680028 -0.52674608 0 0 Z " fill="#E6E8EA" transform="translate(736,527)"/>
<path d="M0 0 C3.62771552 0.88320639 4.97802955 2.36925437 6.94140625 5.47265625 C7.34986239 9.63745015 6.93254491 13.16435322 4.37890625 16.53515625 C0.8411931 17.89581515 -2.37224883 18.23912401 -6.05859375 17.47265625 C-9.05859375 15.41015625 -9.05859375 15.41015625 -11.05859375 12.47265625 C-11.84640655 8.06090455 -11.58834508 6.25072851 -9.05859375 2.53515625 C-5.72572182 0.2438068 -3.96026137 -0.29307437 0 0 Z " fill="#00B1CD" transform="translate(856.05859375,399.52734375)"/>
<path d="M0 0 C4.66124669 2.32547848 8.04824663 6.52831395 9.76953125 11.3828125 C9.93446999 14.07574229 9.86283544 16.67981835 9.76953125 19.3828125 C5.33215413 19.46971503 0.89499491 19.52317176 -3.54296875 19.5703125 C-5.43692383 19.60801758 -5.43692383 19.60801758 -7.36914062 19.64648438 C-9.18188477 19.66098633 -9.18188477 19.66098633 -11.03125 19.67578125 C-12.70441284 19.69934692 -12.70441284 19.69934692 -14.41137695 19.72338867 C-17.23046875 19.3828125 -17.23046875 19.3828125 -20.23046875 16.3828125 C-12.97046875 16.3828125 -5.71046875 16.3828125 1.76953125 16.3828125 C-0.84382669 9.43783355 -0.84382669 9.43783355 -6.23046875 6.3828125 C-6.99359375 5.9909375 -7.75671875 5.5990625 -8.54296875 5.1953125 C-9.09984375 4.9271875 -9.65671875 4.6590625 -10.23046875 4.3828125 C-8.25046875 4.3828125 -6.27046875 4.3828125 -4.23046875 4.3828125 C-4.56046875 3.3928125 -4.89046875 2.4028125 -5.23046875 1.3828125 C-10.45026003 1.2028197 -14.30309856 1.41186442 -19.23046875 3.3828125 C-19.23046875 2.7228125 -19.23046875 2.0628125 -19.23046875 1.3828125 C-13.6976885 -1.98262561 -6.11158978 -1.69112292 0 0 Z " fill="#EBEDEE" transform="translate(927.23046875,527.6171875)"/>
<path d="M0 0 C0.33 0 0.66 0 1 0 C1.33 12.87 1.66 25.74 2 39 C3.65 39.33 5.3 39.66 7 40 C6.98428955 39.28457031 6.9685791 38.56914063 6.95239258 37.83203125 C6.88959253 34.55476961 6.85086697 31.2776351 6.8125 28 C6.77479492 26.31197266 6.77479492 26.31197266 6.73632812 24.58984375 C6.67779624 17.91720865 7.2558898 13.08266241 10 7 C10.22973511 5.95779297 10.22973511 5.95779297 10.46411133 4.89453125 C11 3 11 3 13.125 1.25 C16.59278683 -0.2577334 19.25670998 -0.22019353 23 0 C23 2.64 23 5.28 23 8 C22.09507812 8.14695312 22.09507812 8.14695312 21.171875 8.296875 C20.37265625 8.44640625 19.5734375 8.5959375 18.75 8.75 C17.96109375 8.88921875 17.1721875 9.0284375 16.359375 9.171875 C13.3086864 10.2426465 12.03141019 11.48382147 10 14 C9.36085024 16.98687874 9.36085024 16.98687874 9.390625 20.296875 C9.35839844 21.50214844 9.32617188 22.70742188 9.29296875 23.94921875 C9.27169922 25.83060547 9.27169922 25.83060547 9.25 27.75 C9.22035156 29.01972656 9.19070313 30.28945313 9.16015625 31.59765625 C9.08946049 34.73183485 9.03675988 37.86526956 9 41 C6.03 41 3.06 41 0 41 C0 27.47 0 13.94 0 0 Z " fill="#C9CDD0" transform="translate(615,527)"/>
<path d="M0 0 C1.27230469 0.01804687 2.54460937 0.03609375 3.85546875 0.0546875 C5.31919922 0.08949219 5.31919922 0.08949219 6.8125 0.125 C7.046875 5.7734375 7.046875 5.7734375 4.9375 8.9375 C2.00053467 11.96084667 1.25992902 12.08891701 -3.0625 12.4375 C-6.11850754 12.38740152 -7.07601183 12.19569981 -9.75 10.5 C-11.1875 8.125 -11.1875 8.125 -11.125 5 C-9.24821715 -0.75546739 -5.29775048 -0.09720643 0 0 Z " fill="#08111B" transform="translate(1075.1875,549.875)"/>
<path d="M0 0 C2.76185448 2.35664031 4.34350157 4.51277203 6.0234375 7.7265625 C6.0234375 8.3865625 6.0234375 9.0465625 6.0234375 9.7265625 C5.3634375 9.7265625 4.7034375 9.7265625 4.0234375 9.7265625 C3.5078125 8.6540625 2.9921875 7.5815625 2.4609375 6.4765625 C0.58992841 3.30875056 -1.33825913 0.95709153 -4.71484375 -0.7421875 C-9.77432044 -1.93059653 -15.13033158 -0.94814768 -19.9765625 0.7265625 C-23.51170605 3.48152072 -24.83842872 4.93213416 -25.61579895 9.40290833 C-25.64781948 10.84484453 -25.65280981 12.28754275 -25.63598633 13.72973633 C-25.64647003 14.52050568 -25.65695374 15.31127502 -25.66775513 16.12600708 C-25.69646107 18.7289373 -25.69021921 21.33053388 -25.68359375 23.93359375 C-25.69671155 25.74250451 -25.71201603 27.55140063 -25.72941589 29.36027527 C-25.76926937 34.11306483 -25.77945655 38.86547125 -25.78344727 43.6184082 C-25.79277805 48.47163519 -25.83019126 53.32463699 -25.86523438 58.17773438 C-25.92981373 67.69399989 -25.96305096 77.21009703 -25.9765625 86.7265625 C-26.3065625 86.7265625 -26.6365625 86.7265625 -26.9765625 86.7265625 C-27.06925961 76.12151916 -27.14032611 65.51657227 -27.18381119 54.91120625 C-27.20468235 49.98663837 -27.23299146 45.06234776 -27.27832031 40.13793945 C-27.32179477 35.38522302 -27.34570316 30.63277321 -27.35607147 25.87987328 C-27.36345996 24.06696564 -27.37788804 22.25407253 -27.39948273 20.44127846 C-27.42853837 17.90104309 -27.43251766 15.36190812 -27.43066406 12.8215332 C-27.44504517 12.07274902 -27.45942627 11.32396484 -27.47424316 10.55249023 C-27.4354986 5.64246855 -26.46361042 3.17357684 -22.9765625 -0.2734375 C-15.03290326 -5.83399897 -7.82435261 -5.63460205 0 0 Z " fill="#00B0E0" transform="translate(463.9765625,404.2734375)"/>
<path d="M0 0 C0.99 0.33 1.98 0.66 3 1 C3 28.72 3 56.44 3 85 C2.67 85 2.34 85 2 85 C2 82.69 2 80.38 2 78 C1.34 77.67 0.68 77.34 0 77 C0 51.59 0 26.18 0 0 Z " fill="#076FBE" transform="translate(527,471)"/>
<path d="M0 0 C3.125 2.25 3.125 2.25 5 5 C5 6.32 5 7.64 5 9 C-1.93 9 -8.86 9 -16 9 C-15 4 -15 4 -13.0625 1.6875 C-8.70487561 -0.71363997 -4.86924215 -0.93393661 0 0 Z " fill="#0A121B" transform="translate(1011,534)"/>
<path d="M0 0 C3 1.6875 3 1.6875 5 4 C5.33 5.65 5.66 7.3 6 9 C-0.93 9 -7.86 9 -15 9 C-14 4 -14 4 -12 1.6875 C-7.9183451 -0.60843088 -4.58465683 -0.82224824 0 0 Z " fill="#070E17" transform="translate(923,534)"/>
<path d="M0 0 C2.31 0 4.62 0 7 0 C7 1.98 7 3.96 7 6 C6.67 4.68 6.34 3.36 6 2 C4.68 2 3.36 2 2 2 C2 14.54 2 27.08 2 40 C3.65 40 5.3 40 7 40 C6.98428955 39.16750732 6.9685791 38.33501465 6.95239258 37.47729492 C6.90123358 34.38552144 6.8636352 31.29396382 6.83520508 28.2019043 C6.81271667 26.20672299 6.77459802 24.21173787 6.73632812 22.21679688 C6.72182617 20.33637695 6.72182617 20.33637695 6.70703125 18.41796875 C6.6913208 17.26063232 6.67561035 16.1032959 6.65942383 14.91088867 C7 12 7 12 8.51831055 10.09887695 C9.00726807 9.73624756 9.49622559 9.37361816 10 9 C9.76228882 9.78842285 9.76228882 9.78842285 9.51977539 10.59277344 C8.87265174 13.58978574 8.78111912 16.45054208 8.68359375 19.515625 C8.64169922 20.76601563 8.59980469 22.01640625 8.55664062 23.3046875 C8.51732422 24.60664062 8.47800781 25.90859375 8.4375 27.25 C8.39431641 28.56742188 8.35113281 29.88484375 8.30664062 31.2421875 C8.20058083 34.49468788 8.09851976 37.74726392 8 41 C5.36 41 2.72 41 0 41 C0 27.47 0 13.94 0 0 Z " fill="#F8F9F9" transform="translate(686,527)"/>
<path d="M0 0 C0.66 0 1.32 0 2 0 C2 21.45 2 42.9 2 65 C1.34 65 0.68 65 0 65 C-0.99349062 57.29203547 -1.0611285 49.75317856 -0.87890625 41.9921875 C-0.85529526 40.7855545 -0.83168427 39.57892151 -0.80735779 38.33572388 C-0.73132795 34.51534442 -0.6470454 30.69519953 -0.5625 26.875 C-0.50921846 24.27084447 -0.45647858 21.6666778 -0.40429688 19.0625 C-0.27579582 12.70819103 -0.1405348 6.35405361 0 0 Z " fill="#0185C8" transform="translate(528,407)"/>
<path d="M0 0 C1.8871875 0.0309375 1.8871875 0.0309375 3.8125 0.0625 C4.1425 1.0525 4.4725 2.0425 4.8125 3.0625 C1.8425 3.0625 -1.1275 3.0625 -4.1875 3.0625 C-4.1875 4.0525 -4.1875 5.0425 -4.1875 6.0625 C-1.5475 6.0625 1.0925 6.0625 3.8125 6.0625 C3.8125 6.7225 3.8125 7.3825 3.8125 8.0625 C3.18601562 8.09988281 2.55953125 8.13726563 1.9140625 8.17578125 C1.09679688 8.24152344 0.27953125 8.30726563 -0.5625 8.375 C-1.78066406 8.46201172 -1.78066406 8.46201172 -3.0234375 8.55078125 C-5.56671338 8.89240528 -5.56671338 8.89240528 -7.1875 12.0625 C-9.3515625 12.35546875 -9.3515625 12.35546875 -11.8125 12.25 C-12.62976562 12.22292969 -13.44703125 12.19585938 -14.2890625 12.16796875 C-14.91554688 12.13316406 -15.54203125 12.09835937 -16.1875 12.0625 C-14.23475045 6.42122352 -12.62882532 4.00988455 -7.1875 1.0625 C-4.43671116 0.14557039 -2.82801087 -0.04636083 0 0 Z " fill="#D1D5D8" transform="translate(1073.1875,525.9375)"/>
<path d="M0 0 C1.15723919 3.59539197 0.96754011 6.81220537 0.8125 10.5625 C0.75874211 20.91627043 3.86187802 29.40503822 11 37 C11.99 37.66 12.98 38.32 14 39 C13.67 41.97 13.34 44.94 13 48 C12.67 48 12.34 48 12 48 C12.144375 46.989375 12.28875 45.97875 12.4375 44.9375 C11.82327506 39.40947551 9.00372313 37.55587938 5 34 C2.10075488 30.68657701 0.65587036 27.06440907 -1 23 C-1.33 22.34 -1.66 21.68 -2 21 C-2.49035969 13.69021946 -1.88301088 7.06129081 0 0 Z " fill="#00B1D5" transform="translate(346,462)"/>
<path d="M0 0 C0 0.33 0 0.66 0 1 C-0.89460938 1.08636719 -1.78921875 1.17273438 -2.7109375 1.26171875 C-12.53534097 2.40336052 -21.87519034 4.66563711 -29 12 C-31.10832494 15.52821725 -32.70139435 19.10418305 -34 23 C-38.95 23.495 -38.95 23.495 -44 24 C-42 22 -42 22 -39.5 21.125 C-36.8604924 20.21791378 -36.8604924 20.21791378 -35.6875 17.875 C-35.3471875 16.946875 -35.3471875 16.946875 -35 16 C-34.34 16 -33.68 16 -33 16 C-32.9175 15.2575 -32.835 14.515 -32.75 13.75 C-31.51535304 9.22296114 -28.73365032 7.43858561 -24.78515625 5.078125 C-23.55237509 4.45251721 -22.31096986 3.84368132 -21.0625 3.25 C-20.40950928 2.93925537 -19.75651855 2.62851074 -19.08374023 2.30834961 C-12.73862643 -0.48675004 -6.87898229 -0.73081937 0 0 Z " fill="#00C0DC" transform="translate(418,390)"/>
<path d="M0 0 C2.97 1.65 5.94 3.3 9 5 C9 5.66 9 6.32 9 7 C9.99 7 10.98 7 12 7 C12 7.66 12 8.32 12 9 C12.66 9 13.32 9 14 9 C15.67976077 10.65346887 17.34393747 12.32279624 19 14 C20.99343423 15.57693483 23.01520729 17.1186481 25.0625 18.625 C26.08472656 19.38039063 27.10695313 20.13578125 28.16015625 20.9140625 C29.09730469 21.60242188 30.03445313 22.29078125 31 23 C32.04994141 23.87785156 32.04994141 23.87785156 33.12109375 24.7734375 C35.18427479 26.3644263 35.18427479 26.3644263 39 26 C39.495 27.485 39.495 27.485 40 29 C36.07017434 29.28306628 34.22504034 28.8765181 31.171875 26.39453125 C30.46208496 25.82895508 29.75229492 25.26337891 29.02099609 24.68066406 C28.27156738 24.06416992 27.52213867 23.44767578 26.75 22.8125 C25.15450359 21.53148302 23.55812581 20.25156312 21.9609375 18.97265625 C21.14592773 18.31539551 20.33091797 17.65813477 19.49121094 16.98095703 C17.03569244 15.02838186 14.54840828 13.12884962 12.0390625 11.24609375 C10.8639209 10.36377075 10.8639209 10.36377075 9.66503906 9.46362305 C8.15679012 8.33500905 6.64578237 7.21007102 5.13183594 6.08911133 C4.45668945 5.58017334 3.78154297 5.07123535 3.0859375 4.546875 C2.4882959 4.10182617 1.8906543 3.65677734 1.27490234 3.19824219 C0.85418457 2.80282227 0.4334668 2.40740234 0 2 C0 1.34 0 0.68 0 0 Z " fill="#0769BD" transform="translate(457,574)"/>
<path d="M0 0 C0.33 0 0.66 0 1 0 C1 2.64 1 5.28 1 8 C-9.23 8 -19.46 8 -30 8 C-30 7.01 -30 6.02 -30 5 C-20.1 5 -10.2 5 0 5 C0 3.35 0 1.7 0 0 Z " fill="#D8DCDF" transform="translate(937,542)"/>
<path d="M0 0 C-0.66 0 -1.32 0 -2 0 C-2 0.66 -2 1.32 -2 2 C-3.7015625 2.4021875 -3.7015625 2.4021875 -5.4375 2.8125 C-7.2009375 3.4003125 -7.2009375 3.4003125 -9 4 C-9.33 4.99 -9.66 5.98 -10 7 C-10.474375 7.45375 -10.94875 7.9075 -11.4375 8.375 C-15.31696634 12.40964499 -15.46038207 17.69375705 -16 23 C-16.66 23 -17.32 23 -18 23 C-19.65378094 17.14815974 -18.55070536 13.67981101 -15.671875 8.375 C-12.05176461 3.23241327 -6.40031413 -1.92009424 0 0 Z " fill="#00BED1" transform="translate(344,377)"/>
<path d="M0 0 C0.99 0.495 0.99 0.495 2 1 C5.08813817 1.03070592 8.16326365 0.93259424 11.25 0.83984375 C14 1 14 1 16 3 C14.91796875 4.984375 14.91796875 4.984375 13 7 C9.86328125 7.390625 9.86328125 7.390625 6.3125 7.25 C4.54326172 7.19585938 4.54326172 7.19585938 2.73828125 7.140625 C1.38283203 7.07101562 1.38283203 7.07101562 0 7 C0 4.69 0 2.38 0 0 Z " fill="#DFE2E3" transform="translate(870,539)"/>
<path d="M0 0 C0.928125 0.20625 1.85625 0.4125 2.8125 0.625 C3.1425 4.585 3.4725 8.545 3.8125 12.625 C6.7825 12.625 9.7525 12.625 12.8125 12.625 C13.4725 11.305 14.1325 9.985 14.8125 8.625 C17.7825 8.625 20.7525 8.625 23.8125 8.625 C23.8125 8.955 23.8125 9.285 23.8125 9.625 C23.18601562 9.73457031 22.55953125 9.84414063 21.9140625 9.95703125 C21.09679688 10.11558594 20.27953125 10.27414062 19.4375 10.4375 C18.21933594 10.66373047 18.21933594 10.66373047 16.9765625 10.89453125 C14.45429359 11.50044942 14.45429359 11.50044942 12.8125 14.625 C10.6484375 14.91796875 10.6484375 14.91796875 8.1875 14.8125 C7.37023438 14.78542969 6.55296875 14.75835938 5.7109375 14.73046875 C5.08445312 14.69566406 4.45796875 14.66085937 3.8125 14.625 C3.4825 13.635 3.1525 12.645 2.8125 11.625 C0.5025 11.625 -1.8075 11.625 -4.1875 11.625 C-4.1875 10.965 -4.1875 10.305 -4.1875 9.625 C-2.2075 9.625 -0.2275 9.625 1.8125 9.625 C1.8125 6.985 1.8125 4.345 1.8125 1.625 C-0.8275 1.625 -3.4675 1.625 -6.1875 1.625 C-3.1875 -0.375 -3.1875 -0.375 0 0 Z " fill="#02050B" transform="translate(1053.1875,525.375)"/>
<path d="M0 0 C0.33 0 0.66 0 1 0 C1.02694851 1.95825873 1.04637218 3.91662226 1.0625 5.875 C1.07410156 6.96554687 1.08570313 8.05609375 1.09765625 9.1796875 C1 12 1 12 0 14 C-1.65 14 -3.3 14 -5 14 C-5 14.66 -5 15.32 -5 16 C-3.35 16 -1.7 16 0 16 C1.25248502 18.50497004 1.11374406 20.20853274 1.09765625 23.0078125 C1.09443359 23.99394531 1.09121094 24.98007812 1.08789062 25.99609375 C1.07951172 27.02863281 1.07113281 28.06117188 1.0625 29.125 C1.05798828 30.16527344 1.05347656 31.20554687 1.04882812 32.27734375 C1.03701952 34.85161962 1.02055075 37.42578146 1 40 C0.67 40 0.34 40 0 40 C0 33.07 0 26.14 0 19 C-2.31 19 -4.62 19 -7 19 C-7 16.36 -7 13.72 -7 11 C-4.69 11 -2.38 11 0 11 C0 7.37 0 3.74 0 0 Z " fill="#A4AAAF" transform="translate(1102,516)"/>
<path d="M0 0 C2.31 0 4.62 0 7 0 C7.125 2.875 7.125 2.875 7 6 C6.34 6.66 5.68 7.32 5 8 C5 6.02 5 4.04 5 2 C3.68 2 2.36 2 1 2 C1 14.21 1 26.42 1 39 C0.67 39 0.34 39 0 39 C0 26.13 0 13.26 0 0 Z " fill="#FDFCFD" transform="translate(616,527)"/>
<path d="M0 0 C0 2.64 0 5.28 0 8 C-2.64 8 -5.28 8 -8 8 C-7.34 7.67 -6.68 7.34 -6 7 C-6.33 6.01 -6.66 5.02 -7 4 C-7.99 4 -8.98 4 -10 4 C-9.67 3.01 -9.34 2.02 -9 1 C-6.04335481 -0.4783226 -3.25770263 -0.06032783 0 0 Z " fill="#ECEEEF" transform="translate(638,527)"/>
<path d="M0 0 C0.99 0.33 1.98 0.66 3 1 C3.02929981 4.83331699 3.04689897 8.66660471 3.0625 12.5 C3.07087891 13.57765625 3.07925781 14.6553125 3.08789062 15.765625 C3.10571885 21.61328382 2.89105963 27.21863671 2 33 C1.67 33 1.34 33 1 33 C0.67 22.11 0.34 11.22 0 0 Z " fill="#0478C3" transform="translate(527,471)"/>
<path d="M0 0 C1.99704988 1.99704988 2.68808813 3.33909237 3.8125 5.875 C5.61232802 9.59599277 7.54908496 11.6388476 11 14 C11.66 14.66 12.32 15.32 13 16 C12.01 16.33 11.02 16.66 10 17 C10 16.34 10 15.68 10 15 C9.39542969 14.90203125 8.79085938 14.8040625 8.16796875 14.703125 C4.4338907 13.49207266 2.85351883 10.30985505 1 7 C0.1875 4.0625 0.1875 4.0625 0 2 C-4.57478244 4.0214155 -7.61831569 6.31993178 -11 10 C-11.33 9.34 -11.66 8.68 -12 8 C-8.69901348 2.91097912 -5.58110327 1.76734937 0 0 Z " fill="#00B9D3" transform="translate(382,422)"/>
<path d="M0 0 C12.625 -0.25 12.625 -0.25 16 2 C15 3 15 3 12.05859375 3.09765625 C8.70572917 3.06510417 5.35286458 3.03255208 2 3 C2 8.28 2 13.56 2 19 C1.67 19 1.34 19 1 19 C0.67 12.73 0.34 6.46 0 0 Z " fill="#121A24" transform="translate(580,520)"/>
<path d="M0 0 C2.31 0 4.62 0 7 0 C7 0.66 7 1.32 7 2 C5.35 2.33 3.7 2.66 2 3 C2 15.21 2 27.42 2 40 C1.67 40 1.34 40 1 40 C0.67 26.8 0.34 13.6 0 0 Z " fill="#DBDEE1" transform="translate(1171,527)"/>
<path d="M0 0 C0.33 0 0.66 0 1 0 C3.07475468 5.91623733 3.19311463 11.07819862 2.9765625 17.30859375 C2.95153656 18.27531509 2.92651062 19.24203644 2.90072632 20.23805237 C2.81900528 23.30491735 2.72223169 26.37109152 2.625 29.4375 C2.56671146 31.52536303 2.50940929 33.61325385 2.453125 35.70117188 C2.31349806 40.80117363 2.16037611 45.90061026 2 51 C1.67 51 1.34 51 1 51 C0.67 34.17 0.34 17.34 0 0 Z " fill="#09040B" transform="translate(587,430)"/>
<path d="M0 0 C1.65 0 3.3 0 5 0 C2.97360408 2.10030702 0.8639893 3.89859184 -1.4375 5.6875 C-9.30058947 12.5054953 -9.93646664 21.0363717 -11 31 C-11.33 31 -11.66 31 -12 31 C-12.36722307 18.39200809 -12.36722307 18.39200809 -10 13 C-9.773125 12.175 -9.54625 11.35 -9.3125 10.5 C-7.62871658 7.29279349 -5.37765797 5.55328976 -2.55859375 3.33203125 C-0.86950777 2.06350705 -0.86950777 2.06350705 0 0 Z " fill="#00CBE2" transform="translate(369,414)"/>
<path d="M0 0 C0 0.99 0 1.98 0 3 C-3.18185673 5.38639255 -6.45635979 7.22817989 -10 9 C-10.66 9.66 -11.32 10.32 -12 11 C-12.66 10.34 -13.32 9.68 -14 9 C-16.00349261 9.31165441 -18.00326516 9.64763503 -20 10 C-22.875 9.5625 -22.875 9.5625 -25 9 C-22.25213022 6.25213022 -20.20731601 6.52710596 -16.375 6.125 C-10.4603595 5.3651541 -4.42556013 4.42556013 0 0 Z " fill="#046EBC" transform="translate(472,546)"/>
<path d="M0 0 C1.07765625 0.01804687 2.1553125 0.03609375 3.265625 0.0546875 C4.49539063 0.08949219 4.49539063 0.08949219 5.75 0.125 C5.75 0.455 5.75 0.785 5.75 1.125 C3.11 1.455 0.47 1.785 -2.25 2.125 C-2.58 3.445 -2.91 4.765 -3.25 6.125 C-3.91 6.125 -4.57 6.125 -5.25 6.125 C-5.4975 6.640625 -5.745 7.15625 -6 7.6875 C-7.64581616 10.89684151 -9.4476096 14.00085664 -11.25 17.125 C-11.58 16.135 -11.91 15.145 -12.25 14.125 C-10.95672372 12.09886717 -9.6203055 10.09985205 -8.25 8.125 C-7.48060319 5.89897385 -7.48060319 5.89897385 -7.25 4.125 C-8.57 4.455 -9.89 4.785 -11.25 5.125 C-10.25 2.125 -10.25 2.125 -8.578125 0.9453125 C-5.61411661 -0.09905287 -3.13557132 -0.06816459 0 0 Z " fill="#F2F3F5" transform="translate(1005.25,526.875)"/>
<path d="M0 0 C-0.50603992 2.16874252 -0.99983813 3.99967627 -2 6 C-4.97 6 -7.94 6 -11 6 C-10.4375 3.625 -10.4375 3.625 -9 1 C-2.84 -1.42 -2.84 -1.42 0 0 Z " fill="#E6E8EA" transform="translate(1068,532)"/>
<path d="M0 0 C1.22589844 0.15275391 1.22589844 0.15275391 2.4765625 0.30859375 C3.41628906 0.43427734 3.41628906 0.43427734 4.375 0.5625 C2.395 1.5525 2.395 1.5525 0.375 2.5625 C1.365 2.8925 2.355 3.2225 3.375 3.5625 C3.375 4.2225 3.375 4.8825 3.375 5.5625 C4.035 5.5625 4.695 5.5625 5.375 5.5625 C5.045 6.2225 4.715 6.8825 4.375 7.5625 C3.281875 7.3975 2.18875 7.2325 1.0625 7.0625 C-2.50025873 6.49531816 -2.50025873 6.49531816 -5.625 6.5625 C-6.615 6.5625 -7.605 6.5625 -8.625 6.5625 C-8.02316251 4.54204558 -7.35193904 2.54138961 -6.625 0.5625 C-4.10446405 -0.69776798 -2.7707902 -0.35624445 0 0 Z " fill="#DEE1E4" transform="translate(771.625,527.4375)"/>
<path d="M0 0 C0.99 0.33 1.98 0.66 3 1 C2.01 2.0209375 2.01 2.0209375 1 3.0625 C-1.43885872 6.64457375 -1.33292585 8.75519536 -1 13 C-0.34 13 0.32 13 1 13 C0.67 14.32 0.34 15.64 0 17 C-2.99958046 14.67774416 -4.35437174 12.73504755 -5.0625 9.0625 C-5.39174566 5.39278274 -5.07983392 5.09825714 -2.5625 2 C-1.716875 1.34 -0.87125 0.68 0 0 Z " fill="#008AC6" transform="translate(400,523)"/>
<path d="M0 0 C0.8971875 0.309375 0.8971875 0.309375 1.8125 0.625 C0.884375 1.223125 -0.04375 1.82125 -1 2.4375 C-4.3996483 4.73674937 -4.3996483 4.73674937 -7.1875 7.625 C-7.59807787 9.64870649 -7.59807787 9.64870649 -7.48046875 11.85546875 C-7.47080078 12.65791016 -7.46113281 13.46035156 -7.45117188 14.28710938 C-7.42603516 15.12048828 -7.40089844 15.95386719 -7.375 16.8125 C-7.36146484 17.65748047 -7.34792969 18.50246094 -7.33398438 19.37304688 C-7.29865799 21.45730384 -7.24485139 23.54123277 -7.1875 25.625 C-9.65050136 21.93049796 -9.55479083 19.02858812 -9.5625 14.75 C-9.58699219 14.04230469 -9.61148437 13.33460938 -9.63671875 12.60546875 C-9.65712285 8.95313518 -9.32804679 6.84568837 -7.3515625 3.7421875 C-3.00072329 -0.51440971 -3.00072329 -0.51440971 0 0 Z " fill="#00AED3" transform="translate(446.1875,402.375)"/>
<path d="M0 0 C0.66 0.33 1.32 0.66 2 1 C2 8.92 2 16.84 2 25 C1.34 25.33 0.68 25.66 0 26 C-0.96541545 22.81445408 -1.05239684 20.11247293 -0.87890625 16.796875 C-0.83056641 15.8171875 -0.78222656 14.8375 -0.73242188 13.828125 C-0.67634766 12.81234375 -0.62027344 11.7965625 -0.5625 10.75 C-0.51029297 9.71875 -0.45808594 8.6875 -0.40429688 7.625 C-0.27484366 5.08300961 -0.13988672 2.54143407 0 0 Z " fill="#0766B6" transform="translate(498,575)"/>
<path d="M0 0 C0.33 0 0.66 0 1 0 C1.144375 1.0725 1.28875 2.145 1.4375 3.25 C1.83889973 5.92599819 2.31517393 8.39881191 3 11 C3.90363281 10.96519531 4.80726563 10.93039062 5.73828125 10.89453125 C6.91777344 10.86746094 8.09726562 10.84039062 9.3125 10.8125 C11.07013672 10.76029297 11.07013672 10.76029297 12.86328125 10.70703125 C16 11 16 11 17.90625 12.34375 C19.40545527 14.61397512 19.21562026 16.34068352 19 19 C18.71125 18.38125 18.4225 17.7625 18.125 17.125 C17.06279958 14.86674235 17.06279958 14.86674235 15 13 C12.46206285 12.90925242 12.46206285 12.90925242 9.625 13.125 C4.3500223 13.18722123 4.3500223 13.18722123 1.3125 11.5625 C-0.63782589 7.75472089 -0.32270729 4.1951948 0 0 Z " fill="#00BAD9" transform="translate(393,415)"/>
<path d="M0 0 C0.33 0 0.66 0 1 0 C1 5.61 1 11.22 1 17 C0.01 16.67 -0.98 16.34 -2 16 C-2.05449838 14.27119018 -2.09301688 12.54187288 -2.125 10.8125 C-2.14820313 9.84957031 -2.17140625 8.88664063 -2.1953125 7.89453125 C-1.9913544 4.87187222 -1.26874632 2.73230015 0 0 Z " fill="#1A2027" transform="translate(843,530)"/>
<path d="M0 0 C-6.62615673 3.09866202 -11.67372525 4.47266289 -19 4 C-18.67 3.01 -18.34 2.02 -18 1 C-17.11248047 1.03480469 -17.11248047 1.03480469 -16.20703125 1.0703125 C-10.52463488 1.2000899 -5.23523621 -1.56947333 0 0 Z " fill="#0764B3" transform="translate(519,572)"/>
<path d="M0 0 C1.21236328 0.04060547 1.21236328 0.04060547 2.44921875 0.08203125 C3.06410156 0.11683594 3.67898438 0.15164063 4.3125 0.1875 C4.3125 0.8475 4.3125 1.5075 4.3125 2.1875 C5.9625 2.5175 7.6125 2.8475 9.3125 3.1875 C8.6525 3.8475 7.9925 4.5075 7.3125 5.1875 C6.6525 4.8575 5.9925 4.5275 5.3125 4.1875 C3.108136 3.95799681 0.89857827 3.77674067 -1.3125 3.625 C-2.50101563 3.54121094 -3.68953125 3.45742188 -4.9140625 3.37109375 C-6.28691406 3.28021484 -6.28691406 3.28021484 -7.6875 3.1875 C-5.26849268 0.20484049 -3.789448 -0.16475861 0 0 Z " fill="#DBDEE1" transform="translate(869.6875,516.8125)"/>
<path d="M0 0 C1.18851563 0.00902344 2.37703125 0.01804687 3.6015625 0.02734375 C4.51679687 0.03894531 5.43203125 0.05054688 6.375 0.0625 C6.705 0.7225 7.035 1.3825 7.375 2.0625 C2.425 2.0625 -2.525 2.0625 -7.625 2.0625 C-7.625 2.7225 -7.625 3.3825 -7.625 4.0625 C-9.58647874 5.45188077 -11.58666576 6.7885411 -13.625 8.0625 C-14.285 7.7325 -14.945 7.4025 -15.625 7.0625 C-14.50220538 6.08080524 -13.37668527 5.10222702 -12.25 4.125 C-11.31027344 3.30708984 -11.31027344 3.30708984 -10.3515625 2.47265625 C-6.92150776 -0.3288138 -4.35887717 -0.04273409 0 0 Z " fill="#09080E" transform="translate(1094.625,414.9375)"/>
<path d="M0 0 C0.763125 0.20625 1.52625 0.4125 2.3125 0.625 C2.3125 0.955 2.3125 1.285 2.3125 1.625 C0.6625 1.955 -0.9875 2.285 -2.6875 2.625 C-2.625625 4.048125 -2.625625 4.048125 -2.5625 5.5 C-2.6875 8.625 -2.6875 8.625 -4.6875 10.625 C-6.6875 7.625 -6.6875 7.625 -6.5 4.5625 C-5.41880569 0.65356673 -4.1113564 -0.57367764 0 0 Z " fill="#181E26" transform="translate(1070.6875,550.375)"/>
<path d="M0 0 C0.33 0.99 0.66 1.98 1 3 C-4.61702128 6.82978723 -4.61702128 6.82978723 -7.25 8 C-9.49319118 9.28182353 -10.05698461 10.64246152 -11 13 C-10.51696726 8.68986172 -9.3982201 6.9764837 -6.0625 4.25 C-5.35222656 3.65703125 -4.64195312 3.0640625 -3.91015625 2.453125 C-2 1 -2 1 0 0 Z " fill="#080C14" transform="translate(473,439)"/>
<path d="M0 0 C-1.051875 0.391875 -2.10375 0.78375 -3.1875 1.1875 C-6.93449335 2.78470323 -9.26461149 4.96067943 -12 8 C-13 9 -14 10 -15 11 C-14.77854028 7.12445494 -14.06286207 6.0600682 -11.1875 3.3125 C-4.43725744 -1.5847348 -4.43725744 -1.5847348 0 0 Z " fill="#01B8D6" transform="translate(409,403)"/>
<path d="M0 0 C1.98 0.66 3.96 1.32 6 2 C6 3.32 6 4.64 6 6 C3.69 6 1.38 6 -1 6 C-0.34 5.67 0.32 5.34 1 5 C0.01 4.34 -0.98 3.68 -2 3 C-1.34 2.01 -0.68 1.02 0 0 Z " fill="#ECEDEF" transform="translate(1047,529)"/>
<path d="M0 0 C0 4.29525524 -2.23382207 5.83865379 -5 9 C-5.66 9.99 -6.32 10.98 -7 12 C-7.33 10.35 -7.66 8.7 -8 7 C-5.36 4.69 -2.72 2.38 0 0 Z " fill="#0273BB" transform="translate(513,492)"/>
<path d="M0 0 C1.65 1.65 3.3 3.3 5 5 C4.01 5.33 3.02 5.66 2 6 C1.67 6.66 1.34 7.32 1 8 C-3.95 8 -8.9 8 -14 8 C-14 7.67 -14 7.34 -14 7 C-9.38 7 -4.76 7 0 7 C0 4.69 0 2.38 0 0 Z " fill="#090408" transform="translate(681,475)"/>
<path d="M0 0 C0.33 0 0.66 0 1 0 C2.03801177 4.32504906 2.36561226 6.30794821 0.25 10.3125 C-2 13 -2 13 -5 15 C-4.49675344 12.3831179 -3.72561298 10.46265875 -2.5 8.0625 C-1.13847378 5.2827173 -0.44682292 3.03839588 0 0 Z " fill="#0765B6" transform="translate(527,553)"/>
<path d="M0 0 C0.33 0.66 0.66 1.32 1 2 C3.92824652 2.97608217 5.95613276 3.08226668 9 3 C9 3.66 9 4.32 9 5 C7.37675914 5.22162329 5.751279 5.42689803 4.125 5.625 C2.76761719 5.79902344 2.76761719 5.79902344 1.3828125 5.9765625 C0.59648438 5.98429688 -0.18984375 5.99203125 -1 6 C-1.66 5.34 -2.32 4.68 -3 4 C-2.01 2.68 -1.02 1.36 0 0 Z " fill="#EFF1F3" transform="translate(697,529)"/>
<path d="M0 0 C2.64 0 5.28 0 8 0 C8 3.96 8 7.92 8 12 C7.34 12 6.68 12 6 12 C5.67 8.7 5.34 5.4 5 2 C3.35 1.67 1.7 1.34 0 1 C0 0.67 0 0.34 0 0 Z " fill="#C8CBCE" transform="translate(1103,515)"/>
<path d="M0 0 C0.99 0.86625 1.98 1.7325 3 2.625 C6.86190708 5.94197541 10.89447006 8.99283262 15 12 C14.01 12.495 14.01 12.495 13 13 C1.72983871 5.66129032 1.72983871 5.66129032 0 0 Z " fill="#090D14" transform="translate(1064,468)"/>
<path d="M0 0 C0.33 0 0.66 0 1 0 C1.41256342 3.50678905 0.96981754 5.05812918 -0.6875 8.25 C-3 11 -3 11 -5.75 11.875 C-6.4925 11.91625 -7.235 11.9575 -8 12 C-7.59007812 11.46890625 -7.18015625 10.9378125 -6.7578125 10.390625 C-6.21898437 9.68421875 -5.68015625 8.9778125 -5.125 8.25 C-4.59132813 7.55390625 -4.05765625 6.8578125 -3.5078125 6.140625 C-2.10761086 4.15277397 -1.02144735 2.20156614 0 0 Z " fill="#0672BE" transform="translate(503,516)"/>
<path d="M0 0 C0.33 0.66 0.66 1.32 1 2 C-2.96 2.66 -6.92 3.32 -11 4 C-11 3.01 -11 2.02 -11 1 C-7.32589215 -0.17571451 -3.83070817 -0.07366746 0 0 Z " fill="#009BBD" transform="translate(457,400)"/>
<path d="M0 0 C0.33 0 0.66 0 1 0 C1.02708567 1.60407328 1.04643483 3.2082785 1.0625 4.8125 C1.07410156 5.70582031 1.08570313 6.59914063 1.09765625 7.51953125 C1 10 1 10 0 13 C-0.99 13 -1.98 13 -3 13 C-2.88610125 11.20759337 -2.75852313 9.41605165 -2.625 7.625 C-2.55539062 6.62726562 -2.48578125 5.62953125 -2.4140625 4.6015625 C-2 2 -2 2 0 0 Z " fill="#141C27" transform="translate(1166,543)"/>
<path d="M0 0 C2.31 0 4.62 0 7 0 C7.125 2.875 7.125 2.875 7 6 C6.34 6.66 5.68 7.32 5 8 C5 6.02 5 4.04 5 2 C3.68 2 2.36 2 1 2 C0.67 2.99 0.34 3.98 0 5 C0 3.35 0 1.7 0 0 Z " fill="#F1F2F3" transform="translate(616,527)"/>
<path d="M0 0 C1.36011539 2.72023078 1.2062431 4.9661881 1.25 8 C1.27578125 9.0725 1.3015625 10.145 1.328125 11.25 C1.21984375 12.1575 1.1115625 13.065 1 14 C0.01 14.66 -0.98 15.32 -2 16 C-2.08997924 10.87118304 -1.93119789 6.0698552 -1 1 C-0.67 0.67 -0.34 0.34 0 0 Z " fill="#0372B4" transform="translate(439,517)"/>
<path d="M0 0 C1.65 0 3.3 0 5 0 C2.90472758 2.14653291 0.72884943 4.12747273 -1.5625 6.0625 C-3.45446846 7.6615185 -5.2466002 9.2466002 -7 11 C-7.33 10.01 -7.66 9.02 -8 8 C-7.50628906 7.59007812 -7.01257813 7.18015625 -6.50390625 6.7578125 C-5.86324219 6.21898437 -5.22257812 5.68015625 -4.5625 5.125 C-3.92441406 4.59132813 -3.28632813 4.05765625 -2.62890625 3.5078125 C-0.89194996 2.0777243 -0.89194996 2.0777243 0 0 Z " fill="#00BCD3" transform="translate(369,414)"/>
<path d="M0 0 C0.79921875 0.01804687 1.5984375 0.03609375 2.421875 0.0546875 C3.02515625 0.07789063 3.6284375 0.10109375 4.25 0.125 C4.58 1.115 4.91 2.105 5.25 3.125 C-1.68 2.63 -1.68 2.63 -8.75 2.125 C-5.00631258 0.25315629 -3.9099209 -0.11499767 0 0 Z " fill="#081C26" transform="translate(412.75,390.875)"/>
<path d="M0 0 C0.99 0 1.98 0 3 0 C2.67 3.3 2.34 6.6 2 10 C1.34 10 0.68 10 0 10 C-1.125 3.375 -1.125 3.375 0 0 Z " fill="#00B5C8" transform="translate(326,390)"/>
<path d="M0 0 C2.97 0 5.94 0 9 0 C8.67 1.65 8.34 3.3 8 5 C2.25 3.375 2.25 3.375 0 0 Z " fill="#F0F1F2" transform="translate(769,527)"/>
<path d="M0 0 C1.0625 1.8125 1.0625 1.8125 2 4 C1.67 4.99 1.34 5.98 1 7 C-2.3 7.33 -5.6 7.66 -9 8 C-7 6 -7 6 -4.5 5.125 C-1.8604924 4.21791378 -1.8604924 4.21791378 -0.6875 1.875 C-0.460625 1.25625 -0.23375 0.6375 0 0 Z " fill="#00B4CE" transform="translate(383,406)"/>
<path d="M0 0 C0.99 0 1.98 0 3 0 C3 3.96 3 7.92 3 12 C1 11 1 11 0.375 9.375 C-0.12095645 6.2339425 -0.06103811 3.17398169 0 0 Z " fill="#151D25" transform="translate(1133,544)"/>
<path d="M0 0 C0.66 0.33 1.32 0.66 2 1 C1.01 2.485 1.01 2.485 0 4 C1.98 3.67 3.96 3.34 6 3 C6 3.99 6 4.98 6 6 C3.03 6 0.06 6 -3 6 C-1.125 1.125 -1.125 1.125 0 0 Z " fill="#EEF0F1" transform="translate(1060,532)"/>
<path d="M0 0 C0.66 0.33 1.32 0.66 2 1 C-1 5 -4 9 -7 13 C-6.34197179 8.6570138 -4.96361202 4.92722404 -3 1 C-2.01 0.67 -1.02 0.34 0 0 Z " fill="#00C2DD" transform="translate(354,448)"/>
<path d="M0 0 C6.70459519 4.93654267 6.70459519 4.93654267 7.9375 9.375 C7.958125 10.24125 7.97875 11.1075 8 12 C4.72257902 8.89973691 2.06895163 6.02901106 0 2 C0 1.34 0 0.68 0 0 Z " fill="#01B7D7" transform="translate(873,427)"/>
<path d="M0 0 C0.33 0 0.66 0 1 0 C1.05422947 1.4370809 1.09289723 2.87475462 1.125 4.3125 C1.14820313 5.11300781 1.17140625 5.91351562 1.1953125 6.73828125 C1 9 1 9 -1 12 C-1.33 9.36 -1.66 6.72 -2 4 C-1.34 4 -0.68 4 0 4 C0 2.68 0 1.36 0 0 Z " fill="#171D26" transform="translate(670,543)"/>
<path d="M0 0 C0.33 0 0.66 0 1 0 C1.33 2.64 1.66 5.28 2 8 C2.66 8 3.32 8 4 8 C3.67 9.32 3.34 10.64 3 12 C0.9375 10.5 0.9375 10.5 -1 8 C-1.05928384 5.17593353 -0.55954815 2.79774073 0 0 Z " fill="#0181BF" transform="translate(397,528)"/>
<path d="M0 0 C0.66 0.66 1.32 1.32 2 2 C1.01 2.99 0.02 3.98 -1 5 C-1.66 4.67 -2.32 4.34 -3 4 C-3 3.34 -3 2.68 -3 2 C-2.01 1.34 -1.02 0.68 0 0 Z M-11 5 C-8.36 5 -5.72 5 -3 5 C-3 5.33 -3 5.66 -3 6 C-5.64 6 -8.28 6 -11 6 C-11 5.67 -11 5.34 -11 5 Z " fill="#E0E2E5" transform="translate(667,558)"/>
<path d="M0 0 C0.33 0.99 0.66 1.98 1 3 C-1.64 3 -4.28 3 -7 3 C-7.33 2.01 -7.66 1.02 -8 0 C-5.13822943 -1.43088528 -3.06624227 -0.59991697 0 0 Z " fill="#0275B4" transform="translate(413,540)"/>
<path d="M0 0 C0.66 0.33 1.32 0.66 2 1 C1.67 2.98 1.34 4.96 1 7 C0.01 7 -0.98 7 -2 7 C-1.125 1.125 -1.125 1.125 0 0 Z " fill="#DCDDE0" transform="translate(642,537)"/>
<path d="M0 0 C0.33 0 0.66 0 1 0 C1 3.96 1 7.92 1 12 C-0.32 12.33 -1.64 12.66 -3 13 C-3 12.34 -3 11.68 -3 11 C-2.34 10.67 -1.68 10.34 -1 10 C-0.53248212 7.64400765 -0.53248212 7.64400765 -0.375 4.9375 C-0.30023438 4.01839844 -0.22546875 3.09929687 -0.1484375 2.15234375 C-0.09945313 1.44207031 -0.05046875 0.73179687 0 0 Z " fill="#018BA2" transform="translate(358,435)"/>
<path d="M0 0 C5.75 1.625 5.75 1.625 8 5 C7.05125 4.814375 6.1025 4.62875 5.125 4.4375 C2.10131207 3.71313368 2.10131207 3.71313368 0 5 C0 3.35 0 1.7 0 0 Z " fill="#019BCD" transform="translate(479,422)"/>
<path d="M0 0 C-1 2 -1 2 -2.84765625 2.6328125 C-3.57855469 2.79523437 -4.30945313 2.95765625 -5.0625 3.125 C-6.16271484 3.37636719 -6.16271484 3.37636719 -7.28515625 3.6328125 C-7.85105469 3.75398437 -8.41695313 3.87515625 -9 4 C-9 3.01 -9 2.02 -9 1 C-5.8035914 -0.06546953 -3.34252724 -0.07427838 0 0 Z " fill="#0270B4" transform="translate(425,550)"/>
<path d="M0 0 C2.0625 0.4375 2.0625 0.4375 4 1 C2.68 2.65 1.36 4.3 0 6 C-0.38218767 4.34385343 -0.71395102 2.67542976 -1 1 C-0.67 0.67 -0.34 0.34 0 0 Z " fill="#0567AD" transform="translate(480,533)"/>
<path d="M0 0 C0.33 0.99 0.66 1.98 1 3 C2.65 2.34 4.3 1.68 6 1 C4.35830472 3.02054804 2.69088222 5.02043058 1 7 C0.67 7 0.34 7 0 7 C0 4.69 0 2.38 0 0 Z " fill="#26282E" transform="translate(1039,527)"/>
<path d="M0 0 C0.33 0.99 0.66 1.98 1 3 C-1.31 3.66 -3.62 4.32 -6 5 C-4.87312259 1.61936778 -3.78825335 0 0 0 Z " fill="#DBDFE1" transform="translate(960,527)"/>
<path d="M0 0 C0 0.99 0 1.98 0 3 C-2.60582371 3.93065133 -3.64198224 4.14917407 -6.25 3.0625 C-6.8275 2.711875 -7.405 2.36125 -8 2 C-5.36 1.34 -2.72 0.68 0 0 Z " fill="#081D28" transform="translate(775,480)"/>
</svg>
